<?xml version="1.0" encoding="UTF-8" standalone="no"?>
<!-- Created with Inkscape (http://www.inkscape.org/) -->

<svg
   xmlns:dc="http://purl.org/dc/elements/1.1/"
   xmlns:cc="http://creativecommons.org/ns#"
   xmlns:rdf="http://www.w3.org/1999/02/22-rdf-syntax-ns#"
   xmlns:svg="http://www.w3.org/2000/svg"
   xmlns="http://www.w3.org/2000/svg"
   xmlns:sodipodi="http://sodipodi.sourceforge.net/DTD/sodipodi-0.dtd"
   xmlns:inkscape="http://www.inkscape.org/namespaces/inkscape"
   id="svg2"
   version="1.1"
   inkscape:version="0.91 r"
   xml:space="preserve"
   width="481.25"
   height="196.25"
   viewBox="0 0 481.25 196.25"
   sodipodi:docname="glmuncoupled.svg"><metadata
     id="metadata8"><rdf:RDF><cc:Work
         rdf:about=""><dc:format>image/svg+xml</dc:format><dc:type
           rdf:resource="http://purl.org/dc/dcmitype/StillImage" /><dc:title></dc:title></cc:Work></rdf:RDF></metadata><defs
     id="defs6" /><sodipodi:namedview
     pagecolor="#ffffff"
     bordercolor="#666666"
     borderopacity="1"
     objecttolerance="10"
     gridtolerance="10"
     guidetolerance="10"
     inkscape:pageopacity="0"
     inkscape:pageshadow="2"
     inkscape:window-width="1323"
     inkscape:window-height="744"
     id="namedview4"
     showgrid="false"
     inkscape:zoom="0.76051948"
     inkscape:cx="240.625"
     inkscape:cy="98.125"
     inkscape:window-x="43"
     inkscape:window-y="24"
     inkscape:window-maximized="1"
     inkscape:current-layer="g10" /><g
     id="g10"
     inkscape:groupmode="layer"
     inkscape:label="ink_ext_XXXXXX"
     transform="matrix(1.25,0,0,-1.25,0,196.25)"><g
       id="g12"
       transform="scale(0.1,0.1)"><path
         d="m 1890.78,1010.7 1955.94,0"
         style="fill:none;stroke:#231f20;stroke-width:20;stroke-linecap:butt;stroke-linejoin:miter;stroke-miterlimit:10;stroke-dasharray:none;stroke-opacity:1"
         id="path14"
         inkscape:connector-curvature="0" /><path
         d="m 3302.77,1144.61 0,-126.8"
         style="fill:none;stroke:#ff0000;stroke-width:20;stroke-linecap:butt;stroke-linejoin:miter;stroke-miterlimit:10;stroke-dasharray:none;stroke-opacity:1"
         id="path16"
         inkscape:connector-curvature="0" /><path
         d="m 3379.41,1144.56 0,-126.79"
         style="fill:none;stroke:#ff0000;stroke-width:20;stroke-linecap:butt;stroke-linejoin:miter;stroke-miterlimit:10;stroke-dasharray:none;stroke-opacity:1"
         id="path18"
         inkscape:connector-curvature="0" /><path
         d="m 3499.77,1144.56 0,-126.79"
         style="fill:none;stroke:#ff0000;stroke-width:20;stroke-linecap:butt;stroke-linejoin:miter;stroke-miterlimit:10;stroke-dasharray:none;stroke-opacity:1"
         id="path20"
         inkscape:connector-curvature="0" /><path
         d="m 3618.12,1144.56 0,-126.79"
         style="fill:none;stroke:#ff0000;stroke-width:20;stroke-linecap:butt;stroke-linejoin:miter;stroke-miterlimit:10;stroke-dasharray:none;stroke-opacity:1"
         id="path22"
         inkscape:connector-curvature="0" /><path
         d="m 3779.34,1144.56 0,-126.79"
         style="fill:none;stroke:#ff0000;stroke-width:20;stroke-linecap:butt;stroke-linejoin:miter;stroke-miterlimit:10;stroke-dasharray:none;stroke-opacity:1"
         id="path24"
         inkscape:connector-curvature="0" /><path
         d="m 3799.73,1144.56 0,-126.79"
         style="fill:none;stroke:#ff0000;stroke-width:20;stroke-linecap:butt;stroke-linejoin:miter;stroke-miterlimit:10;stroke-dasharray:none;stroke-opacity:1"
         id="path26"
         inkscape:connector-curvature="0" /><path
         d="m 3575.43,1146.99 0,-126.76"
         style="fill:none;stroke:#ff0000;stroke-width:20;stroke-linecap:butt;stroke-linejoin:miter;stroke-miterlimit:10;stroke-dasharray:none;stroke-opacity:1"
         id="path28"
         inkscape:connector-curvature="0" /><path
         d="m 1820.98,1121.02 -421.53,0"
         style="fill:none;stroke:#231f20;stroke-width:20;stroke-linecap:butt;stroke-linejoin:miter;stroke-miterlimit:10;stroke-dasharray:none;stroke-opacity:1"
         id="path30"
         inkscape:connector-curvature="0" /><path
         d="m 2327.58,855.578 306.09,0 0,305.98 -306.09,0 0,-305.98 z"
         style="fill:#ffffff;fill-opacity:1;fill-rule:nonzero;stroke:none"
         id="path32"
         inkscape:connector-curvature="0" /><path
         d="m 2327.58,855.582 306.09,0 0,305.98 -306.09,0 0,-305.98 z"
         style="fill:none;stroke:#231f20;stroke-width:10;stroke-linecap:butt;stroke-linejoin:miter;stroke-miterlimit:10;stroke-dasharray:none;stroke-opacity:1"
         id="path34"
         inkscape:connector-curvature="0" /><path
         d="m 2351.13,901.484 c 147.15,0 227.66,77.379 253.09,214.176"
         style="fill:none;stroke:#787aff;stroke-width:20;stroke-linecap:butt;stroke-linejoin:miter;stroke-miterlimit:10;stroke-dasharray:none;stroke-opacity:1"
         id="path36"
         inkscape:connector-curvature="0" /><path
         d="m 2902.07,855.578 306.09,0 0,305.98 -306.09,0 0,-305.98 z"
         style="fill:#ffffff;fill-opacity:1;fill-rule:nonzero;stroke:none"
         id="path38"
         inkscape:connector-curvature="0" /><path
         d="m 2902.07,855.582 306.09,0 0,305.98 -306.09,0 0,-305.98 z"
         style="fill:none;stroke:#231f20;stroke-width:10;stroke-linecap:butt;stroke-linejoin:miter;stroke-miterlimit:10;stroke-dasharray:none;stroke-opacity:1"
         id="path40"
         inkscape:connector-curvature="0" /><path
         d="m 2917.62,962.691 109.34,0 0,109.297 -109.34,0 0,-109.297 z"
         style="fill:#5cada3;fill-opacity:1;fill-rule:nonzero;stroke:none"
         id="path42"
         inkscape:connector-curvature="0" /><path
         d="m 2917.62,962.695 109.34,0 0,109.297 -109.34,0 0,-109.297 z"
         style="fill:none;stroke:#231f20;stroke-width:10;stroke-linecap:butt;stroke-linejoin:miter;stroke-miterlimit:10;stroke-dasharray:none;stroke-opacity:1"
         id="path44"
         inkscape:connector-curvature="0" /><path
         d="m 3026.95,1071.99 -109.33,0 54.68,25.23 108.6,0 -53.95,-25.23"
         style="fill:#5cada3;fill-opacity:1;fill-rule:nonzero;stroke:none"
         id="path46"
         inkscape:connector-curvature="0" /><path
         d="m 3026.95,1071.99 -109.33,0 54.68,25.23 108.6,0 -53.95,-25.23 z"
         style="fill:none;stroke:#231f20;stroke-width:10;stroke-linecap:butt;stroke-linejoin:miter;stroke-miterlimit:10;stroke-dasharray:none;stroke-opacity:1"
         id="path48"
         inkscape:connector-curvature="0" /><path
         d="m 3080.9,987.93 -54.69,-25.239 0,109.299 54.69,25.23 0,-109.29"
         style="fill:#5cada3;fill-opacity:1;fill-rule:nonzero;stroke:none"
         id="path50"
         inkscape:connector-curvature="0" /><path
         d="m 3080.9,987.922 -54.69,-25.227 0,109.295 54.69,25.23 0,-109.298 z"
         style="fill:none;stroke:#231f20;stroke-width:10;stroke-linecap:butt;stroke-linejoin:miter;stroke-miterlimit:10;stroke-dasharray:none;stroke-opacity:1"
         id="path52"
         inkscape:connector-curvature="0" /><path
         d="m 2963.05,1039.69 c 0,-6.33 -5.2,-11.45 -11.53,-11.45 -6.32,0 -11.44,5.12 -11.44,11.45 0,6.36 5.12,11.48 11.44,11.48 6.33,0 11.53,-5.12 11.53,-11.48"
         style="fill:#000000;fill-opacity:1;fill-rule:nonzero;stroke:none"
         id="path54"
         inkscape:connector-curvature="0" /><path
         d="m 2963.05,1039.68 c 0,-6.32 -5.2,-11.44 -11.53,-11.44 -6.32,0 -11.44,5.12 -11.44,11.44 0,6.37 5.12,11.49 11.44,11.49 6.33,0 11.53,-5.12 11.53,-11.49 z"
         style="fill:none;stroke:#231f20;stroke-width:10;stroke-linecap:butt;stroke-linejoin:miter;stroke-miterlimit:10;stroke-dasharray:none;stroke-opacity:1"
         id="path56"
         inkscape:connector-curvature="0" /><path
         d="m 2980.86,1016.76 c 0,-6.33 -5.16,-11.49 -11.48,-11.49 -6.33,0 -11.49,5.16 -11.49,11.49 0,6.32 5.16,11.48 11.49,11.48 6.32,0 11.48,-5.16 11.48,-11.48"
         style="fill:#000000;fill-opacity:1;fill-rule:nonzero;stroke:none"
         id="path58"
         inkscape:connector-curvature="0" /><path
         d="m 2980.86,1016.75 c 0,-6.33 -5.16,-11.48 -11.48,-11.48 -6.33,0 -11.49,5.15 -11.49,11.48 0,6.33 5.16,11.49 11.49,11.49 6.32,0 11.48,-5.16 11.48,-11.49 z"
         style="fill:none;stroke:#231f20;stroke-width:10;stroke-linecap:butt;stroke-linejoin:miter;stroke-miterlimit:10;stroke-dasharray:none;stroke-opacity:1"
         id="path60"
         inkscape:connector-curvature="0" /><path
         d="m 3000.59,993.051 c 0,-6.332 -5.12,-11.492 -11.45,-11.492 -6.37,0 -11.48,5.16 -11.48,11.492 0,6.32 5.11,11.479 11.48,11.479 6.33,0 11.45,-5.159 11.45,-11.479"
         style="fill:#000000;fill-opacity:1;fill-rule:nonzero;stroke:none"
         id="path62"
         inkscape:connector-curvature="0" /><path
         d="m 3000.59,993.043 c 0,-6.328 -5.12,-11.48 -11.45,-11.48 -6.37,0 -11.48,5.152 -11.48,11.48 0,6.332 5.11,11.497 11.48,11.497 6.33,0 11.45,-5.165 11.45,-11.497 z"
         style="fill:none;stroke:#231f20;stroke-width:10;stroke-linecap:butt;stroke-linejoin:miter;stroke-miterlimit:10;stroke-dasharray:none;stroke-opacity:1"
         id="path64"
         inkscape:connector-curvature="0" /><path
         d="m 3044.69,1045.04 c 0,-4.89 3.98,-7.93 8.86,-6.8 4.89,1.13 8.83,6.02 8.83,10.9 0,4.88 -3.94,7.93 -8.83,6.8 -4.88,-1.14 -8.86,-6.02 -8.86,-10.9"
         style="fill:#000000;fill-opacity:1;fill-rule:nonzero;stroke:none"
         id="path66"
         inkscape:connector-curvature="0" /><path
         d="m 3044.69,1045.04 c 0,-4.89 3.98,-7.93 8.86,-6.8 4.89,1.14 8.83,6.01 8.83,10.9 0,4.88 -3.94,7.92 -8.83,6.79 -4.88,-1.13 -8.86,-6.01 -8.86,-10.89 z"
         style="fill:none;stroke:#231f20;stroke-width:10;stroke-linecap:butt;stroke-linejoin:miter;stroke-miterlimit:10;stroke-dasharray:none;stroke-opacity:1"
         id="path68"
         inkscape:connector-curvature="0" /><path
         d="m 3044.69,1019.1 c 0,-4.88 3.98,-7.93 8.86,-6.84 4.89,1.14 8.83,6.02 8.83,10.9 0,4.89 -3.94,7.93 -8.83,6.8 -4.88,-1.13 -8.86,-6.02 -8.86,-10.86"
         style="fill:#000000;fill-opacity:1;fill-rule:nonzero;stroke:none"
         id="path70"
         inkscape:connector-curvature="0" /><path
         d="m 3044.69,1019.11 c 0,-4.9 3.98,-7.94 8.86,-6.85 4.89,1.13 8.83,6.03 8.83,10.9 0,4.88 -3.94,7.93 -8.83,6.8 -4.88,-1.14 -8.86,-6.01 -8.86,-10.85 z"
         style="fill:none;stroke:#231f20;stroke-width:10;stroke-linecap:butt;stroke-linejoin:miter;stroke-miterlimit:10;stroke-dasharray:none;stroke-opacity:1"
         id="path72"
         inkscape:connector-curvature="0" /><path
         d="m 2988.67,1082.38 c -3.59,2.66 -1.76,5.74 4.1,6.99 5.86,1.21 13.48,0.08 17.07,-2.57 3.6,-2.62 1.72,-5.75 -4.1,-6.96 -5.86,-1.21 -13.51,-0.08 -17.07,2.54"
         style="fill:#000000;fill-opacity:1;fill-rule:nonzero;stroke:none"
         id="path74"
         inkscape:connector-curvature="0" /><path
         d="m 2988.67,1082.38 c -3.59,2.66 -1.76,5.75 4.1,7 5.86,1.2 13.48,0.03 17.07,-2.59 3.6,-2.62 1.72,-5.74 -4.1,-6.95 -5.86,-1.21 -13.51,-0.07 -17.07,2.54 z"
         style="fill:none;stroke:#231f20;stroke-width:10;stroke-linecap:butt;stroke-linejoin:miter;stroke-miterlimit:10;stroke-dasharray:none;stroke-opacity:1"
         id="path76"
         inkscape:connector-curvature="0" /><path
         d="m 3069.65,926.051 -76.84,77.739 77.78,76.83 76.83,-77.73 -77.77,-76.839"
         style="fill:#5cada3;fill-opacity:1;fill-rule:nonzero;stroke:none"
         id="path78"
         inkscape:connector-curvature="0" /><path
         d="m 3069.65,926.055 -76.84,77.735 77.78,76.84 76.83,-77.74 -77.77,-76.835 z"
         style="fill:none;stroke:#231f20;stroke-width:10;stroke-linecap:butt;stroke-linejoin:miter;stroke-miterlimit:10;stroke-dasharray:none;stroke-opacity:1"
         id="path80"
         inkscape:connector-curvature="0" /><path
         d="m 3147.42,1002.89 -76.83,77.73 56.36,-21.13 76.37,-77.228 -55.9,20.628"
         style="fill:#5cada3;fill-opacity:1;fill-rule:nonzero;stroke:none"
         id="path82"
         inkscape:connector-curvature="0" /><path
         d="m 3147.42,1002.89 -76.83,77.74 56.36,-21.14 76.37,-77.228 -55.9,20.628 z"
         style="fill:none;stroke:#231f20;stroke-width:10;stroke-linecap:butt;stroke-linejoin:miter;stroke-miterlimit:10;stroke-dasharray:none;stroke-opacity:1"
         id="path84"
         inkscape:connector-curvature="0" /><path
         d="m 3125.51,905.43 -56.37,21.172 77.77,76.838 56.41,-21.178 -77.81,-76.832"
         style="fill:#5cada3;fill-opacity:1;fill-rule:nonzero;stroke:none"
         id="path86"
         inkscape:connector-curvature="0" /><path
         d="m 3125.51,905.422 -56.37,21.183 77.77,76.825 56.41,-21.168 -77.81,-76.84 z"
         style="fill:none;stroke:#231f20;stroke-width:10;stroke-linecap:butt;stroke-linejoin:miter;stroke-miterlimit:10;stroke-dasharray:none;stroke-opacity:1"
         id="path88"
         inkscape:connector-curvature="0" /><path
         d="m 3079.53,1025.66 c -4.49,-4.45 -11.76,-4.41 -16.25,0.08 -4.45,4.53 -4.41,11.8 0.12,16.25 4.49,4.45 11.76,4.41 16.25,-0.08 4.45,-4.53 4.37,-11.79 -0.12,-16.25"
         style="fill:#000000;fill-opacity:1;fill-rule:nonzero;stroke:none"
         id="path90"
         inkscape:connector-curvature="0" /><path
         d="m 3079.53,1025.66 c -4.49,-4.45 -11.76,-4.42 -16.25,0.08 -4.45,4.53 -4.41,11.8 0.12,16.25 4.49,4.46 11.76,4.41 16.25,-0.08 4.45,-4.53 4.37,-11.8 -0.12,-16.25 z"
         style="fill:none;stroke:#231f20;stroke-width:10;stroke-linecap:butt;stroke-linejoin:miter;stroke-miterlimit:10;stroke-dasharray:none;stroke-opacity:1"
         id="path92"
         inkscape:connector-curvature="0" /><path
         d="m 3075.74,996.828 c -4.53,-4.449 -11.79,-4.406 -16.25,0.121 -4.45,4.491 -4.41,11.761 0.12,16.211 4.49,4.46 11.76,4.42 16.25,-0.11 4.41,-4.5 4.37,-11.76 -0.12,-16.222"
         style="fill:#000000;fill-opacity:1;fill-rule:nonzero;stroke:none"
         id="path94"
         inkscape:connector-curvature="0" /><path
         d="m 3075.74,996.832 c -4.53,-4.449 -11.79,-4.41 -16.25,0.121 -4.45,4.497 -4.41,11.757 0.12,16.207 4.49,4.45 11.76,4.41 16.25,-0.12 4.41,-4.49 4.37,-11.75 -0.12,-16.208 z"
         style="fill:none;stroke:#231f20;stroke-width:10;stroke-linecap:butt;stroke-linejoin:miter;stroke-miterlimit:10;stroke-dasharray:none;stroke-opacity:1"
         id="path96"
         inkscape:connector-curvature="0" /><path
         d="m 3072.73,966.129 c -4.53,-4.449 -11.75,-4.41 -16.21,0.082 -4.49,4.527 -4.45,11.801 0.08,16.25 4.49,4.449 11.8,4.41 16.21,-0.121 4.49,-4.488 4.42,-11.762 -0.08,-16.211"
         style="fill:#000000;fill-opacity:1;fill-rule:nonzero;stroke:none"
         id="path98"
         inkscape:connector-curvature="0" /><path
         d="m 3072.73,966.133 c -4.53,-4.461 -11.75,-4.418 -16.21,0.082 -4.49,4.527 -4.45,11.789 0.08,16.25 4.49,4.449 11.8,4.41 16.21,-0.121 4.49,-4.489 4.42,-11.762 -0.08,-16.211 z"
         style="fill:none;stroke:#231f20;stroke-width:10;stroke-linecap:butt;stroke-linejoin:miter;stroke-miterlimit:10;stroke-dasharray:none;stroke-opacity:1"
         id="path100"
         inkscape:connector-curvature="0" /><path
         d="m 3140.74,971.328 c -3.47,-3.437 -2.85,-8.398 1.37,-11.058 4.26,-2.692 10.51,-2.071 13.98,1.332 3.48,3.437 2.86,8.398 -1.4,11.089 -4.22,2.661 -10.47,2.028 -13.95,-1.363"
         style="fill:#000000;fill-opacity:1;fill-rule:nonzero;stroke:none"
         id="path102"
         inkscape:connector-curvature="0" /><path
         d="m 3140.74,971.324 c -3.47,-3.429 -2.85,-8.402 1.37,-11.051 4.26,-2.699 10.51,-2.07 13.98,1.332 3.48,3.43 2.86,8.387 -1.4,11.09 -4.22,2.66 -10.47,2.028 -13.95,-1.371 z"
         style="fill:none;stroke:#231f20;stroke-width:10;stroke-linecap:butt;stroke-linejoin:miter;stroke-miterlimit:10;stroke-dasharray:none;stroke-opacity:1"
         id="path104"
         inkscape:connector-curvature="0" /><path
         d="m 3122.27,953.078 c -3.48,-3.43 -2.86,-8.387 1.36,-11.09 4.26,-2.66 10.51,-2.066 13.99,1.371 3.43,3.442 2.85,8.403 -1.41,11.051 -4.22,2.699 -10.47,2.07 -13.94,-1.332"
         style="fill:#000000;fill-opacity:1;fill-rule:nonzero;stroke:none"
         id="path106"
         inkscape:connector-curvature="0" /><path
         d="m 3122.27,953.082 c -3.48,-3.437 -2.86,-8.398 1.36,-11.09 4.26,-2.66 10.51,-2.07 13.99,1.363 3.43,3.438 2.85,8.399 -1.41,11.059 -4.22,2.691 -10.47,2.07 -13.94,-1.332 z"
         style="fill:none;stroke:#231f20;stroke-width:10;stroke-linecap:butt;stroke-linejoin:miter;stroke-miterlimit:10;stroke-dasharray:none;stroke-opacity:1"
         id="path108"
         inkscape:connector-curvature="0" /><path
         d="m 3127.93,1037.42 c -0.63,4.41 2.85,5.27 7.85,1.95 4.96,-3.28 9.53,-9.53 10.16,-13.9 0.66,-4.38 -2.85,-5.28 -7.82,-2 -5,3.33 -9.53,9.58 -10.19,13.95"
         style="fill:#000000;fill-opacity:1;fill-rule:nonzero;stroke:none"
         id="path110"
         inkscape:connector-curvature="0" /><path
         d="m 3127.93,1037.42 c -0.63,4.41 2.85,5.28 7.85,1.99 4.96,-3.32 9.53,-9.57 10.16,-13.95 0.66,-4.37 -2.85,-5.26 -7.82,-1.99 -5,3.32 -9.53,9.57 -10.19,13.95 z"
         style="fill:none;stroke:#231f20;stroke-width:10;stroke-linecap:butt;stroke-linejoin:miter;stroke-miterlimit:10;stroke-dasharray:none;stroke-opacity:1"
         id="path112"
         inkscape:connector-curvature="0" /><path
         d="m 2233.59,268.902 1102.19,0"
         style="fill:none;stroke:#231f20;stroke-width:20;stroke-linecap:butt;stroke-linejoin:miter;stroke-miterlimit:10;stroke-dasharray:none;stroke-opacity:1"
         id="path114"
         inkscape:connector-curvature="0" /><path
         d="m 3342.93,265.395 0,750.535"
         style="fill:none;stroke:#231f20;stroke-width:20;stroke-linecap:butt;stroke-linejoin:miter;stroke-miterlimit:10;stroke-dasharray:none;stroke-opacity:1"
         id="path116"
         inkscape:connector-curvature="0" /><path
         d="m 2586.33,125.621 306.047,0 0,305.98 -306.047,0 0,-305.98 z"
         style="fill:#ffffff;fill-opacity:1;fill-rule:nonzero;stroke:none"
         id="path118"
         inkscape:connector-curvature="0" /><path
         d="m 2586.33,125.625 306.047,0 0,305.98 -306.047,0 0,-305.98 z"
         style="fill:none;stroke:#231f20;stroke-width:10;stroke-linecap:butt;stroke-linejoin:miter;stroke-miterlimit:10;stroke-dasharray:none;stroke-opacity:1"
         id="path120"
         inkscape:connector-curvature="0" /><path
         d="m 2613.75,357.574 c 71.29,-477.539 0,0 253.13,16.719"
         style="fill:none;stroke:#f4225c;stroke-width:20;stroke-linecap:butt;stroke-linejoin:miter;stroke-miterlimit:10;stroke-dasharray:none;stroke-opacity:1"
         id="path122"
         inkscape:connector-curvature="0" /><g
         id="g124"
         transform="scale(10,10)"><text
           transform="matrix(1,0,0,-0.9996801,241.063,2.8668)"
           style="font-variant:normal;font-weight:normal;font-size:8.97828197px;font-family:'DejaVu Sans';-inkscape-font-specification:DejaVuSans;writing-mode:lr-tb;fill:#000000;fill-opacity:1;fill-rule:nonzero;stroke:none"
           id="text126"><tspan
             x="0 4.4263291 9.5350819 11.64479 15.855595 20.344889 22.248392 27.240135 29.340858 32.896347 35.814289 40.743275 43.903809 48.13258 50.036083 54.731724 56.850418 59.76836 64.26664"
             y="0"
             sodipodi:role="line"
             id="tspan128">Spike history flter</tspan></text>
<text
           transform="matrix(1,0,0,-0.9996801,338.22898,131.3748)"
           style="font-variant:normal;font-weight:normal;font-size:8.16207123px;font-family:'DejaVu Sans';-inkscape-font-specification:DejaVuSans;writing-mode:lr-tb;fill:#000000;fill-opacity:1;fill-rule:nonzero;stroke:none"
           id="text130"><tspan
             x="0 5.4441013 9.5250473 14.071309 16.340496 20.878555 25.416491 29.497372 31.309299 35.390163 39.928101"
             y="0"
             sodipodi:role="line"
             id="tspan132">Synthesized</tspan><tspan
             x="3.6320319 7.712913 12.251151 14.071281 18.152493 22.682615 24.959843 27.220827 29.93889 34.47691 36.297039"
             y="9.7945433"
             sodipodi:role="line"
             id="tspan134">spike train</tspan></text>
<text
           transform="matrix(1,0,0,-0.9996801,-0.890234,89.0234)"
           style="font-variant:normal;font-weight:normal;font-size:9.06897068px;font-family:'DejaVu Sans';-inkscape-font-specification:DejaVuSans;writing-mode:lr-tb;fill:#000000;fill-opacity:1;fill-rule:nonzero;stroke:none"
           id="text136"><tspan
             x="0 2.5210207 7.5635581 12.614902 17.65744 20.178495 22.699587 27.234241 32.276646 36.81123 39.332294 44.374584"
             y="0"
             sodipodi:role="line"
             id="tspan138">Input vector</tspan></text>
<text
           transform="matrix(1,0,0,-0.9996801,132.80854,47.4996)"
           style="font-variant:normal;font-size:9.06897068px;font-family:f-1;-inkscape-font-specification:f-1-0;writing-mode:lr-tb;fill:#000000;fill-opacity:1;fill-rule:nonzero;stroke:none"
           id="text140"><tspan
             x="0"
             y="0"
             id="tspan142">0</tspan></text>
<text
           transform="matrix(1,0,0,-0.9996801,87.4223,38.0484)"
           style="font-variant:normal;font-weight:normal;font-size:8.97828197px;font-family:'DejaVu Sans';-inkscape-font-specification:DejaVuSans;writing-mode:lr-tb;fill:#000000;fill-opacity:1;fill-rule:nonzero;stroke:none"
           id="text144"><tspan
             x="0 5.1533937 7.1467009 14.62569 19.617733 22.113817 24.107119 29.108192"
             y="0"
             sodipodi:role="line"
             id="tspan146">Time lag</tspan></text>
</g><path
         d="m 2184.92,1005.43 c 0,-84.141 -68.2,-152.352 -152.38,-152.352 -84.14,0 -152.34,68.211 -152.34,152.352 0,84.1 68.2,152.3 152.34,152.3 84.18,0 152.38,-68.2 152.38,-152.3"
         style="fill:#ffffff;fill-opacity:1;fill-rule:nonzero;stroke:none"
         id="path148"
         inkscape:connector-curvature="0" /><path
         d="m 2184.92,1005.42 c 0,-84.135 -68.2,-152.338 -152.38,-152.338 -84.14,0 -152.34,68.203 -152.34,152.338 0,84.12 68.2,152.31 152.34,152.31 84.18,0 152.38,-68.19 152.38,-152.31 z"
         style="fill:none;stroke:#231f20;stroke-width:20;stroke-linecap:butt;stroke-linejoin:miter;stroke-miterlimit:10;stroke-dasharray:none;stroke-opacity:1"
         id="path150"
         inkscape:connector-curvature="0" /><g
         id="g152"
         transform="scale(10,10)"><text
           transform="matrix(1,0,0,-0.9996801,195.244,93.0109)"
           style="font-variant:normal;font-size:24.48623276px;font-family:f-1;-inkscape-font-specification:f-1-1;writing-mode:lr-tb;fill:#000000;fill-opacity:1;fill-rule:nonzero;stroke:none"
           id="text154"><tspan
             x="0"
             y="0"
             id="tspan156">Σ</tspan></text>
</g><path
         d="m 2233.59,267.855 -159.64,577.77"
         style="fill:none;stroke:#231f20;stroke-width:20;stroke-linecap:butt;stroke-linejoin:miter;stroke-miterlimit:10;stroke-dasharray:none;stroke-opacity:1"
         id="path158"
         inkscape:connector-curvature="0" /><g
         id="g160"
         transform="scale(10,10)"><text
           transform="matrix(0.350802,0,0,-1,54.4008,70.391)"
           style="font-variant:normal;font-weight:normal;font-size:80.81780243px;font-family:'Liberation Sans Narrow';-inkscape-font-specification:LiberationSansNarrow;writing-mode:lr-tb;fill:#000000;fill-opacity:1;fill-rule:nonzero;stroke:none"
           id="text162"><tspan
             x="0"
             y="0"
             id="tspan164">{</tspan></text>
</g><path
         d="m 1729.88,1153.83 14.26,-33.6 -14.26,-33.55 79.61,33.55 -79.61,33.6"
         style="fill:#231f20;fill-opacity:1;fill-rule:nonzero;stroke:none"
         id="path166"
         inkscape:connector-curvature="0" /><path
         d="m 1768.4,1564.02 -16.25,0"
         style="fill:none;stroke:#231f20;stroke-width:10;stroke-linecap:butt;stroke-linejoin:miter;stroke-miterlimit:10;stroke-dasharray:none;stroke-opacity:1"
         id="path168"
         inkscape:connector-curvature="0" /><path
         d="m 2135.59,619.992 4.33,-15.66"
         style="fill:none;stroke:#231f20;stroke-width:10;stroke-linecap:butt;stroke-linejoin:miter;stroke-miterlimit:10;stroke-dasharray:none;stroke-opacity:1"
         id="path170"
         inkscape:connector-curvature="0" /><path
         d="m 2110.04,586.48 28.51,22.739 36.22,-4.731 -53.72,67.66 -11.01,-85.668"
         style="fill:#231f20;fill-opacity:1;fill-rule:nonzero;stroke:none"
         id="path172"
         inkscape:connector-curvature="0" /><path
         d="m 2765.51,846.754 0,84.918"
         style="fill:none;stroke:#231f20;stroke-width:10;stroke-linecap:butt;stroke-linejoin:miter;stroke-miterlimit:10;stroke-dasharray:none;stroke-opacity:1"
         id="path174"
         inkscape:connector-curvature="0" /><path
         d="m 2799.1,906.211 -33.59,14.258 -33.6,-14.258 33.6,79.57 33.59,-79.57"
         style="fill:#231f20;fill-opacity:1;fill-rule:nonzero;stroke:none"
         id="path176"
         inkscape:connector-curvature="0" /><g
         id="g178"
         transform="scale(10,10)"><text
           transform="matrix(1,0,0,-0.9996801,226.224,129.905)"
           style="font-variant:normal;font-weight:normal;font-size:8.16207123px;font-family:'Liberation Sans';-inkscape-font-specification:LiberationSans;writing-mode:lr-tb;fill:#000000;fill-opacity:1;fill-rule:nonzero;stroke:none"
           id="text180"><tspan
             x="0 5.4441013 9.5251369 14.063249 18.60136 23.139471 27.70212 32.240231 34.509285 36.321266 40.859379"
             y="0"
             sodipodi:role="line"
             id="tspan182">Exponential</tspan><tspan
             x="11.976932 32.37397 37.818073 40.536041 45.074154 49.612263 51.424244 55.50528 57.774334 62.312447"
             y="54.748413"
             sodipodi:role="line"
             id="tspan184"> Predicted</tspan><tspan
             x="11.976932 13.788911 18.327023 22.865133 27.403246 34.226837 38.764946 43.303059 47.841171 52.37928 56.917393 61.479919 66.018028 70.099068 72.368118 75.08609 79.624199 81.893257"
             y="64.950874"
             sodipodi:role="line"
             id="tspan186">inhomogeneous rate</tspan><tspan
             x="61.071037 66.515137 71.053246 72.865227 76.946266"
             y="-3.6726749"
             sodipodi:role="line"
             id="tspan188">Spike</tspan><tspan
             x="61.071037 65.609146 70.147263 74.685371 79.22348 81.965988 86.504097 88.773155 93.311264"
             y="6.529789"
             sodipodi:role="line"
             id="tspan190">generator</tspan><tspan
             x="-159.95767 -155.87668 -151.33856 -148.62059 -144.08249 -139.51993 -134.98183 -132.71277 -128.17465 -123.63654 -121.36749 -116.82938 -112.29127 -110.02221 -107.75315 -105.4841 -103.67212 -101.86014 -99.59108 -95.052971 -92.334999"
             y="-6.9202137"
             sodipodi:role="line"
             id="tspan192">Torque output filters</tspan></text>
</g><path
         d="m 670.859,973.004 724.691,0 0,306.02 -724.691,0 0,-306.02 z"
         style="fill:none;stroke:#231f20;stroke-width:10;stroke-linecap:butt;stroke-linejoin:miter;stroke-miterlimit:10;stroke-dasharray:none;stroke-opacity:1"
         id="path194"
         inkscape:connector-curvature="0" /><path
         d="m 670.66,558.082 724.691,0 0,305.98 -724.691,0 0,-305.98 z"
         style="fill:none;stroke:#231f20;stroke-width:10;stroke-linecap:butt;stroke-linejoin:miter;stroke-miterlimit:10;stroke-dasharray:none;stroke-opacity:1"
         id="path196"
         inkscape:connector-curvature="0" /><path
         d="m 1813.71,709.492 -421.48,0"
         style="fill:none;stroke:#231f20;stroke-width:20;stroke-linecap:butt;stroke-linejoin:miter;stroke-miterlimit:10;stroke-dasharray:none;stroke-opacity:1"
         id="path198"
         inkscape:connector-curvature="0" /><path
         d="m 1725.98,742.539 14.25,-33.559 -14.25,-33.589 79.61,33.589 -79.61,33.559"
         style="fill:#231f20;fill-opacity:1;fill-rule:nonzero;stroke:none"
         id="path200"
         inkscape:connector-curvature="0" /><path
         d="m 1799.3,704.105 127.69,189.758"
         style="fill:none;stroke:#231f20;stroke-width:20;stroke-linecap:butt;stroke-linejoin:miter;stroke-miterlimit:10;stroke-dasharray:none;stroke-opacity:1"
         id="path202"
         inkscape:connector-curvature="0" /><path
         d="m 1812.27,1124.02 73.9,-65.35"
         style="fill:none;stroke:#231f20;stroke-width:20;stroke-linecap:butt;stroke-linejoin:miter;stroke-miterlimit:10;stroke-dasharray:none;stroke-opacity:1"
         id="path204"
         inkscape:connector-curvature="0" /><path
         d="m 1351.13,1098.32 c -203.98,20 -195.97,131.99 -243.98,100 -48.01,-32 -16.02,-152 -60,-144.03 -43.99,8.01 -36.02,88.01 -151.99,72.03 -116.019,-16.01 -176.019,-24.02 -176.019,-24.02"
         style="fill:none;stroke:#740092;stroke-width:16;stroke-linecap:butt;stroke-linejoin:miter;stroke-miterlimit:4;stroke-dasharray:none;stroke-opacity:1"
         id="path206"
         inkscape:connector-curvature="0" /><path
         d="m 711.129,743.633 c 204.031,-20 196.019,-131.988 244.031,-100 48,32.031 15.969,152.031 60,144.019 43.98,-8.007 35.97,-88.007 151.99,-71.988 116.01,15.981 176.01,23.981 176.01,23.981"
         style="fill:none;stroke:#00a3ff;stroke-width:16;stroke-linecap:butt;stroke-linejoin:miter;stroke-miterlimit:4;stroke-dasharray:none;stroke-opacity:1"
         id="path208"
         inkscape:connector-curvature="0" /></g></g></svg>