<?xml version="1.0" encoding="UTF-8" standalone="no"?>
<!-- Created with Inkscape (http://www.inkscape.org/) -->

<svg
   xmlns:dc="http://purl.org/dc/elements/1.1/"
   xmlns:cc="http://creativecommons.org/ns#"
   xmlns:rdf="http://www.w3.org/1999/02/22-rdf-syntax-ns#"
   xmlns:svg="http://www.w3.org/2000/svg"
   xmlns="http://www.w3.org/2000/svg"
   xmlns:sodipodi="http://sodipodi.sourceforge.net/DTD/sodipodi-0.dtd"
   xmlns:inkscape="http://www.inkscape.org/namespaces/inkscape"
   id="svg2"
   version="1.1"
   inkscape:version="0.91 r"
   xml:space="preserve"
   width="495.56644"
   height="201.75969"
   viewBox="0 0 495.56644 201.75969"
   sodipodi:docname="glmuncoupled_white.svg"><metadata
     id="metadata8"><rdf:RDF><cc:Work
         rdf:about=""><dc:format>image/svg+xml</dc:format><dc:type
           rdf:resource="http://purl.org/dc/dcmitype/StillImage" /><dc:title></dc:title></cc:Work></rdf:RDF></metadata><defs
     id="defs6" /><sodipodi:namedview
     pagecolor="#ffffff"
     bordercolor="#666666"
     borderopacity="1"
     objecttolerance="10"
     gridtolerance="10"
     guidetolerance="10"
     inkscape:pageopacity="0"
     inkscape:pageshadow="2"
     inkscape:window-width="1237"
     inkscape:window-height="1000"
     id="namedview4"
     showgrid="false"
     inkscape:zoom="3.042078"
     inkscape:cx="144.45747"
     inkscape:cy="132.96623"
     inkscape:window-x="43"
     inkscape:window-y="24"
     inkscape:window-maximized="1"
     inkscape:current-layer="g10"
     fit-margin-top="0"
     fit-margin-left="0"
     fit-margin-right="0"
     fit-margin-bottom="0" /><g
     inkscape:groupmode="layer"
     id="layer2"
     inkscape:label="ink_ext_XXXXXX 1"
     transform="translate(5.1137362,-2.8582337)"
     style="display:none"><rect
       style="color:#000000;clip-rule:nonzero;display:inline;overflow:visible;visibility:visible;opacity:1;isolation:auto;mix-blend-mode:normal;color-interpolation:sRGB;color-interpolation-filters:linearRGB;solid-color:#000000;solid-opacity:1;fill:#000000;fill-opacity:1;fill-rule:nonzero;stroke:none;stroke-width:3;stroke-linecap:butt;stroke-linejoin:miter;stroke-miterlimit:10;stroke-dasharray:none;stroke-dashoffset:0;stroke-opacity:1;marker:none;color-rendering:auto;image-rendering:auto;shape-rendering:auto;text-rendering:auto;enable-background:accumulate"
       id="rect4906"
       width="495.56644"
       height="201.75969"
       x="-5.1137362"
       y="2.8582337"
       rx="0.0069088866"
       ry="1.9116095" /></g><g
     id="g10"
     inkscape:groupmode="layer"
     inkscape:label="ink_ext_XXXXXX"
     transform="matrix(1.25,0,0,-1.25,5.1137362,193.39177)"
     style="display:inline"><path
       inkscape:connector-curvature="0"
       id="path14"
       style="fill:#ffffff;fill-opacity:1;stroke:#ffffff;stroke-width:2;stroke-linecap:butt;stroke-linejoin:miter;stroke-miterlimit:10;stroke-dasharray:none;stroke-opacity:1"
       d="m 189.078,101.07 195.594,0" /><path
       inkscape:connector-curvature="0"
       id="path16"
       style="fill:none;stroke:#ff0000;stroke-width:2;stroke-linecap:butt;stroke-linejoin:miter;stroke-miterlimit:10;stroke-dasharray:none;stroke-opacity:1"
       d="m 330.277,114.461 0,-12.68" /><path
       inkscape:connector-curvature="0"
       id="path18"
       style="fill:none;stroke:#ff0000;stroke-width:2;stroke-linecap:butt;stroke-linejoin:miter;stroke-miterlimit:10;stroke-dasharray:none;stroke-opacity:1"
       d="m 337.941,114.456 0,-12.679" /><path
       inkscape:connector-curvature="0"
       id="path20"
       style="fill:none;stroke:#ff0000;stroke-width:2;stroke-linecap:butt;stroke-linejoin:miter;stroke-miterlimit:10;stroke-dasharray:none;stroke-opacity:1"
       d="m 349.977,114.456 0,-12.679" /><path
       inkscape:connector-curvature="0"
       id="path22"
       style="fill:none;stroke:#ff0000;stroke-width:2;stroke-linecap:butt;stroke-linejoin:miter;stroke-miterlimit:10;stroke-dasharray:none;stroke-opacity:1"
       d="m 361.812,114.456 0,-12.679" /><path
       inkscape:connector-curvature="0"
       id="path24"
       style="fill:none;stroke:#ff0000;stroke-width:2;stroke-linecap:butt;stroke-linejoin:miter;stroke-miterlimit:10;stroke-dasharray:none;stroke-opacity:1"
       d="m 377.934,114.456 0,-12.679" /><path
       inkscape:connector-curvature="0"
       id="path26"
       style="fill:none;stroke:#ff0000;stroke-width:2;stroke-linecap:butt;stroke-linejoin:miter;stroke-miterlimit:10;stroke-dasharray:none;stroke-opacity:1"
       d="m 379.973,114.456 0,-12.679" /><path
       inkscape:connector-curvature="0"
       id="path28"
       style="fill:none;stroke:#ff0000;stroke-width:2;stroke-linecap:butt;stroke-linejoin:miter;stroke-miterlimit:10;stroke-dasharray:none;stroke-opacity:1"
       d="m 357.543,114.699 0,-12.676" /><path
       inkscape:connector-curvature="0"
       id="path30"
       style="fill:#ffffff;fill-opacity:1;stroke:#ffffff;stroke-width:2;stroke-linecap:butt;stroke-linejoin:miter;stroke-miterlimit:10;stroke-dasharray:none;stroke-opacity:1"
       d="m 182.098,112.102 -42.153,0" /><path
       inkscape:connector-curvature="0"
       id="path32"
       style="fill:#ffffff;fill-opacity:1;fill-rule:nonzero;stroke:none"
       d="m 232.758,85.5578 30.609,0 0,30.598 -30.609,0 0,-30.598 z" /><path
       inkscape:connector-curvature="0"
       id="path34"
       style="fill:none;stroke:#231f20;stroke-width:1;stroke-linecap:butt;stroke-linejoin:miter;stroke-miterlimit:10;stroke-dasharray:none;stroke-opacity:1"
       d="m 232.758,85.5582 30.609,0 0,30.598 -30.609,0 0,-30.598 z" /><path
       inkscape:connector-curvature="0"
       id="path36"
       style="fill:none;stroke:#787aff;stroke-width:2;stroke-linecap:butt;stroke-linejoin:miter;stroke-miterlimit:10;stroke-dasharray:none;stroke-opacity:1"
       d="m 235.113,90.1484 c 14.715,0 22.766,7.7379 25.309,21.4176" /><path
       inkscape:connector-curvature="0"
       id="path38"
       style="fill:#ffffff;fill-opacity:1;fill-rule:nonzero;stroke:none"
       d="m 290.207,85.5578 30.609,0 0,30.598 -30.609,0 0,-30.598 z" /><path
       inkscape:connector-curvature="0"
       id="path40"
       style="fill:none;stroke:#231f20;stroke-width:1;stroke-linecap:butt;stroke-linejoin:miter;stroke-miterlimit:10;stroke-dasharray:none;stroke-opacity:1"
       d="m 290.207,85.5582 30.609,0 0,30.598 -30.609,0 0,-30.598 z" /><path
       inkscape:connector-curvature="0"
       id="path42"
       style="fill:#5cada3;fill-opacity:1;fill-rule:nonzero;stroke:none"
       d="m 291.762,96.2691 10.934,0 0,10.9297 -10.934,0 0,-10.9297 z" /><path
       inkscape:connector-curvature="0"
       id="path44"
       style="fill:none;stroke:#231f20;stroke-width:1;stroke-linecap:butt;stroke-linejoin:miter;stroke-miterlimit:10;stroke-dasharray:none;stroke-opacity:1"
       d="m 291.762,96.2695 10.934,0 0,10.9297 -10.934,0 0,-10.9297 z" /><path
       inkscape:connector-curvature="0"
       id="path46"
       style="fill:#5cada3;fill-opacity:1;fill-rule:nonzero;stroke:none"
       d="m 302.695,107.199 -10.933,0 5.468,2.523 10.86,0 -5.395,-2.523" /><path
       inkscape:connector-curvature="0"
       id="path48"
       style="fill:none;stroke:#231f20;stroke-width:1;stroke-linecap:butt;stroke-linejoin:miter;stroke-miterlimit:10;stroke-dasharray:none;stroke-opacity:1"
       d="m 302.695,107.199 -10.933,0 5.468,2.523 10.86,0 -5.395,-2.523 z" /><path
       inkscape:connector-curvature="0"
       id="path50"
       style="fill:#5cada3;fill-opacity:1;fill-rule:nonzero;stroke:none"
       d="m 308.09,98.793 -5.469,-2.5239 0,10.9299 5.469,2.523 0,-10.929" /><path
       inkscape:connector-curvature="0"
       id="path52"
       style="fill:none;stroke:#231f20;stroke-width:1;stroke-linecap:butt;stroke-linejoin:miter;stroke-miterlimit:10;stroke-dasharray:none;stroke-opacity:1"
       d="m 308.09,98.7922 -5.469,-2.5227 0,10.9295 5.469,2.523 0,-10.9298 z" /><path
       inkscape:connector-curvature="0"
       id="path54"
       style="fill:#000000;fill-opacity:1;fill-rule:nonzero;stroke:none"
       d="m 296.305,103.969 c 0,-0.633 -0.52,-1.145 -1.153,-1.145 -0.632,0 -1.144,0.512 -1.144,1.145 0,0.636 0.512,1.148 1.144,1.148 0.633,0 1.153,-0.512 1.153,-1.148" /><path
       inkscape:connector-curvature="0"
       id="path56"
       style="fill:none;stroke:#231f20;stroke-width:1;stroke-linecap:butt;stroke-linejoin:miter;stroke-miterlimit:10;stroke-dasharray:none;stroke-opacity:1"
       d="m 296.305,103.968 c 0,-0.632 -0.52,-1.144 -1.153,-1.144 -0.632,0 -1.144,0.512 -1.144,1.144 0,0.637 0.512,1.149 1.144,1.149 0.633,0 1.153,-0.512 1.153,-1.149 z" /><path
       inkscape:connector-curvature="0"
       id="path58"
       style="fill:#000000;fill-opacity:1;fill-rule:nonzero;stroke:none"
       d="m 298.086,101.676 c 0,-0.633 -0.516,-1.149 -1.148,-1.149 -0.633,0 -1.149,0.516 -1.149,1.149 0,0.632 0.516,1.148 1.149,1.148 0.632,0 1.148,-0.516 1.148,-1.148" /><path
       inkscape:connector-curvature="0"
       id="path60"
       style="fill:none;stroke:#231f20;stroke-width:1;stroke-linecap:butt;stroke-linejoin:miter;stroke-miterlimit:10;stroke-dasharray:none;stroke-opacity:1"
       d="m 298.086,101.675 c 0,-0.633 -0.516,-1.148 -1.148,-1.148 -0.633,0 -1.149,0.515 -1.149,1.148 0,0.633 0.516,1.149 1.149,1.149 0.632,0 1.148,-0.516 1.148,-1.149 z" /><path
       inkscape:connector-curvature="0"
       id="path62"
       style="fill:#000000;fill-opacity:1;fill-rule:nonzero;stroke:none"
       d="m 300.059,99.3051 c 0,-0.6332 -0.512,-1.1492 -1.145,-1.1492 -0.637,0 -1.148,0.516 -1.148,1.1492 0,0.632 0.511,1.1479 1.148,1.1479 0.633,0 1.145,-0.5159 1.145,-1.1479" /><path
       inkscape:connector-curvature="0"
       id="path64"
       style="fill:none;stroke:#231f20;stroke-width:1;stroke-linecap:butt;stroke-linejoin:miter;stroke-miterlimit:10;stroke-dasharray:none;stroke-opacity:1"
       d="m 300.059,99.3043 c 0,-0.6328 -0.512,-1.148 -1.145,-1.148 -0.637,0 -1.148,0.5152 -1.148,1.148 0,0.6332 0.511,1.1497 1.148,1.1497 0.633,0 1.145,-0.5165 1.145,-1.1497 z" /><path
       inkscape:connector-curvature="0"
       id="path66"
       style="fill:#000000;fill-opacity:1;fill-rule:nonzero;stroke:none"
       d="m 304.469,104.504 c 0,-0.489 0.398,-0.793 0.886,-0.68 0.489,0.113 0.883,0.602 0.883,1.09 0,0.488 -0.394,0.793 -0.883,0.68 -0.488,-0.114 -0.886,-0.602 -0.886,-1.09" /><path
       inkscape:connector-curvature="0"
       id="path68"
       style="fill:none;stroke:#231f20;stroke-width:1;stroke-linecap:butt;stroke-linejoin:miter;stroke-miterlimit:10;stroke-dasharray:none;stroke-opacity:1"
       d="m 304.469,104.504 c 0,-0.489 0.398,-0.793 0.886,-0.68 0.489,0.114 0.883,0.601 0.883,1.09 0,0.488 -0.394,0.792 -0.883,0.679 -0.488,-0.113 -0.886,-0.601 -0.886,-1.089 z" /><path
       inkscape:connector-curvature="0"
       id="path70"
       style="fill:#000000;fill-opacity:1;fill-rule:nonzero;stroke:none"
       d="m 304.469,101.91 c 0,-0.488 0.398,-0.793 0.886,-0.684 0.489,0.114 0.883,0.602 0.883,1.09 0,0.489 -0.394,0.793 -0.883,0.68 -0.488,-0.113 -0.886,-0.602 -0.886,-1.086" /><path
       inkscape:connector-curvature="0"
       id="path72"
       style="fill:none;stroke:#231f20;stroke-width:1;stroke-linecap:butt;stroke-linejoin:miter;stroke-miterlimit:10;stroke-dasharray:none;stroke-opacity:1"
       d="m 304.469,101.911 c 0,-0.49 0.398,-0.794 0.886,-0.685 0.489,0.113 0.883,0.603 0.883,1.09 0,0.488 -0.394,0.793 -0.883,0.68 -0.488,-0.114 -0.886,-0.601 -0.886,-1.085 z" /><path
       inkscape:connector-curvature="0"
       id="path74"
       style="fill:#000000;fill-opacity:1;fill-rule:nonzero;stroke:none"
       d="m 298.867,108.238 c -0.359,0.266 -0.176,0.574 0.41,0.699 0.586,0.121 1.348,0.008 1.707,-0.257 0.36,-0.262 0.172,-0.575 -0.41,-0.696 -0.586,-0.121 -1.351,-0.008 -1.707,0.254" /><path
       inkscape:connector-curvature="0"
       id="path76"
       style="fill:none;stroke:#231f20;stroke-width:1;stroke-linecap:butt;stroke-linejoin:miter;stroke-miterlimit:10;stroke-dasharray:none;stroke-opacity:1"
       d="m 298.867,108.238 c -0.359,0.266 -0.176,0.575 0.41,0.7 0.586,0.12 1.348,0.003 1.707,-0.259 0.36,-0.262 0.172,-0.574 -0.41,-0.695 -0.586,-0.121 -1.351,-0.007 -1.707,0.254 z" /><path
       inkscape:connector-curvature="0"
       id="path78"
       style="fill:#5cada3;fill-opacity:1;fill-rule:nonzero;stroke:none"
       d="m 306.965,92.6051 -7.684,7.7739 7.778,7.683 7.683,-7.773 -7.777,-7.6839" /><path
       inkscape:connector-curvature="0"
       id="path80"
       style="fill:none;stroke:#231f20;stroke-width:1;stroke-linecap:butt;stroke-linejoin:miter;stroke-miterlimit:10;stroke-dasharray:none;stroke-opacity:1"
       d="m 306.965,92.6055 -7.684,7.7735 7.778,7.684 7.683,-7.774 -7.777,-7.6835 z" /><path
       inkscape:connector-curvature="0"
       id="path82"
       style="fill:#5cada3;fill-opacity:1;fill-rule:nonzero;stroke:none"
       d="m 314.742,100.289 -7.683,7.773 5.636,-2.113 7.637,-7.7228 -5.59,2.0628" /><path
       inkscape:connector-curvature="0"
       id="path84"
       style="fill:none;stroke:#231f20;stroke-width:1;stroke-linecap:butt;stroke-linejoin:miter;stroke-miterlimit:10;stroke-dasharray:none;stroke-opacity:1"
       d="m 314.742,100.289 -7.683,7.774 5.636,-2.114 7.637,-7.7228 -5.59,2.0628 z" /><path
       inkscape:connector-curvature="0"
       id="path86"
       style="fill:#5cada3;fill-opacity:1;fill-rule:nonzero;stroke:none"
       d="m 312.551,90.543 -5.637,2.1172 7.777,7.6838 5.641,-2.1178 -7.781,-7.6832" /><path
       inkscape:connector-curvature="0"
       id="path88"
       style="fill:none;stroke:#231f20;stroke-width:1;stroke-linecap:butt;stroke-linejoin:miter;stroke-miterlimit:10;stroke-dasharray:none;stroke-opacity:1"
       d="m 312.551,90.5422 -5.637,2.1183 7.777,7.6825 5.641,-2.1168 -7.781,-7.684 z" /><path
       inkscape:connector-curvature="0"
       id="path90"
       style="fill:#000000;fill-opacity:1;fill-rule:nonzero;stroke:none"
       d="m 307.953,102.566 c -0.449,-0.445 -1.176,-0.441 -1.625,0.008 -0.445,0.453 -0.441,1.18 0.012,1.625 0.449,0.445 1.176,0.441 1.625,-0.008 0.445,-0.453 0.437,-1.179 -0.012,-1.625" /><path
       inkscape:connector-curvature="0"
       id="path92"
       style="fill:none;stroke:#231f20;stroke-width:1;stroke-linecap:butt;stroke-linejoin:miter;stroke-miterlimit:10;stroke-dasharray:none;stroke-opacity:1"
       d="m 307.953,102.566 c -0.449,-0.445 -1.176,-0.442 -1.625,0.008 -0.445,0.453 -0.441,1.18 0.012,1.625 0.449,0.446 1.176,0.441 1.625,-0.008 0.445,-0.453 0.437,-1.18 -0.012,-1.625 z" /><path
       inkscape:connector-curvature="0"
       id="path94"
       style="fill:#000000;fill-opacity:1;fill-rule:nonzero;stroke:none"
       d="m 307.574,99.6828 c -0.453,-0.4449 -1.179,-0.4406 -1.625,0.0121 -0.445,0.4491 -0.441,1.1761 0.012,1.6211 0.449,0.446 1.176,0.442 1.625,-0.011 0.441,-0.45 0.437,-1.176 -0.012,-1.6222" /><path
       inkscape:connector-curvature="0"
       id="path96"
       style="fill:none;stroke:#231f20;stroke-width:1;stroke-linecap:butt;stroke-linejoin:miter;stroke-miterlimit:10;stroke-dasharray:none;stroke-opacity:1"
       d="m 307.574,99.6832 c -0.453,-0.4449 -1.179,-0.441 -1.625,0.0121 -0.445,0.4497 -0.441,1.1757 0.012,1.6207 0.449,0.445 1.176,0.441 1.625,-0.012 0.441,-0.449 0.437,-1.175 -0.012,-1.6208 z" /><path
       inkscape:connector-curvature="0"
       id="path98"
       style="fill:#000000;fill-opacity:1;fill-rule:nonzero;stroke:none"
       d="m 307.273,96.6129 c -0.453,-0.4449 -1.175,-0.441 -1.621,0.0082 -0.449,0.4527 -0.445,1.1801 0.008,1.625 0.449,0.4449 1.18,0.441 1.621,-0.0121 0.449,-0.4488 0.442,-1.1762 -0.008,-1.6211" /><path
       inkscape:connector-curvature="0"
       id="path100"
       style="fill:none;stroke:#231f20;stroke-width:1;stroke-linecap:butt;stroke-linejoin:miter;stroke-miterlimit:10;stroke-dasharray:none;stroke-opacity:1"
       d="m 307.273,96.6133 c -0.453,-0.4461 -1.175,-0.4418 -1.621,0.0082 -0.449,0.4527 -0.445,1.1789 0.008,1.625 0.449,0.4449 1.18,0.441 1.621,-0.0121 0.449,-0.4489 0.442,-1.1762 -0.008,-1.6211 z" /><path
       inkscape:connector-curvature="0"
       id="path102"
       style="fill:#000000;fill-opacity:1;fill-rule:nonzero;stroke:none"
       d="m 314.074,97.1328 c -0.347,-0.3437 -0.285,-0.8398 0.137,-1.1058 0.426,-0.2692 1.051,-0.2071 1.398,0.1332 0.348,0.3437 0.286,0.8398 -0.14,1.1089 -0.422,0.2661 -1.047,0.2028 -1.395,-0.1363" /><path
       inkscape:connector-curvature="0"
       id="path104"
       style="fill:none;stroke:#231f20;stroke-width:1;stroke-linecap:butt;stroke-linejoin:miter;stroke-miterlimit:10;stroke-dasharray:none;stroke-opacity:1"
       d="m 314.074,97.1324 c -0.347,-0.3429 -0.285,-0.8402 0.137,-1.1051 0.426,-0.2699 1.051,-0.207 1.398,0.1332 0.348,0.343 0.286,0.8387 -0.14,1.109 -0.422,0.266 -1.047,0.2028 -1.395,-0.1371 z" /><path
       inkscape:connector-curvature="0"
       id="path106"
       style="fill:#000000;fill-opacity:1;fill-rule:nonzero;stroke:none"
       d="m 312.227,95.3078 c -0.348,-0.343 -0.286,-0.8387 0.136,-1.109 0.426,-0.266 1.051,-0.2066 1.399,0.1371 0.343,0.3442 0.285,0.8403 -0.141,1.1051 -0.422,0.2699 -1.047,0.207 -1.394,-0.1332" /><path
       inkscape:connector-curvature="0"
       id="path108"
       style="fill:none;stroke:#231f20;stroke-width:1;stroke-linecap:butt;stroke-linejoin:miter;stroke-miterlimit:10;stroke-dasharray:none;stroke-opacity:1"
       d="m 312.227,95.3082 c -0.348,-0.3437 -0.286,-0.8398 0.136,-1.109 0.426,-0.266 1.051,-0.207 1.399,0.1363 0.343,0.3438 0.285,0.8399 -0.141,1.1059 -0.422,0.2691 -1.047,0.207 -1.394,-0.1332 z" /><path
       inkscape:connector-curvature="0"
       id="path110"
       style="fill:#000000;fill-opacity:1;fill-rule:nonzero;stroke:none"
       d="m 312.793,103.742 c -0.063,0.441 0.285,0.527 0.785,0.195 0.496,-0.328 0.953,-0.953 1.016,-1.39 0.066,-0.438 -0.285,-0.528 -0.782,-0.2 -0.5,0.333 -0.953,0.958 -1.019,1.395" /><path
       inkscape:connector-curvature="0"
       id="path112"
       style="fill:none;stroke:#231f20;stroke-width:1;stroke-linecap:butt;stroke-linejoin:miter;stroke-miterlimit:10;stroke-dasharray:none;stroke-opacity:1"
       d="m 312.793,103.742 c -0.063,0.441 0.285,0.528 0.785,0.199 0.496,-0.332 0.953,-0.957 1.016,-1.395 0.066,-0.437 -0.285,-0.526 -0.782,-0.199 -0.5,0.332 -0.953,0.957 -1.019,1.395 z" /><path
       inkscape:connector-curvature="0"
       id="path114"
       style="fill:#ffffff;fill-opacity:1;stroke:#ffffff;stroke-width:2;stroke-linecap:butt;stroke-linejoin:miter;stroke-miterlimit:10;stroke-dasharray:none;stroke-opacity:1"
       d="m 223.359,26.8902 110.219,0" /><path
       inkscape:connector-curvature="0"
       id="path116"
       style="fill:#ffffff;fill-opacity:1;stroke:#ffffff;stroke-width:2;stroke-linecap:butt;stroke-linejoin:miter;stroke-miterlimit:10;stroke-dasharray:none;stroke-opacity:1"
       d="m 334.293,26.5395 0,75.0535" /><path
       inkscape:connector-curvature="0"
       id="path118"
       style="fill:#ffffff;fill-opacity:1;fill-rule:nonzero;stroke:none"
       d="m 258.633,12.5621 30.6047,0 0,30.598 -30.6047,0 0,-30.598 z" /><path
       inkscape:connector-curvature="0"
       id="path120"
       style="fill:none;stroke:#231f20;stroke-width:1;stroke-linecap:butt;stroke-linejoin:miter;stroke-miterlimit:10;stroke-dasharray:none;stroke-opacity:1"
       d="m 258.633,12.5625 30.6047,0 0,30.598 -30.6047,0 0,-30.598 z" /><path
       inkscape:connector-curvature="0"
       id="path122"
       style="fill:none;stroke:#f4225c;stroke-width:2;stroke-linecap:butt;stroke-linejoin:miter;stroke-miterlimit:10;stroke-dasharray:none;stroke-opacity:1"
       d="m 261.375,35.7574 c 7.129,-47.7539 0,0 25.313,1.6719" /><g
       id="g124"
       style="fill:#ffffff;fill-opacity:1"><text
         id="text126"
         style="font-variant:normal;font-weight:normal;font-size:8.97828197px;font-family:'DejaVu Sans';-inkscape-font-specification:DejaVuSans;writing-mode:lr-tb;fill:#ffffff;fill-opacity:1;fill-rule:nonzero;stroke:none"
         transform="matrix(1,0,0,-0.9996801,241.063,2.8668)"><tspan
           id="tspan128"
           sodipodi:role="line"
           x="0"
           y="0">Spike history filter</tspan></text>
<text
         id="text130"
         style="font-variant:normal;font-weight:normal;font-size:8.16207123px;font-family:'DejaVu Sans';-inkscape-font-specification:DejaVuSans;writing-mode:lr-tb;fill:#ffffff;fill-opacity:1;fill-rule:nonzero;stroke:none"
         transform="matrix(1,0,0,-0.9996801,338.22898,131.3748)"><tspan
           id="tspan132"
           sodipodi:role="line"
           y="0"
           x="0 5.4441013 9.5250473 14.071309 16.340496 20.878555 25.416491 29.497372 31.309299 35.390163 39.928101">Synthesized</tspan><tspan
           id="tspan134"
           sodipodi:role="line"
           y="9.7945433"
           x="3.6320319 7.712913 12.251151 14.071281 18.152493 22.682615 24.959843 27.220827 29.93889 34.47691 36.297039">spike train</tspan></text>
<text
         id="text136"
         style="font-variant:normal;font-weight:normal;font-size:9.06897068px;font-family:'DejaVu Sans';-inkscape-font-specification:DejaVuSans;writing-mode:lr-tb;fill:#ffffff;fill-opacity:1;fill-rule:nonzero;stroke:none"
         transform="matrix(1,0,0,-0.9996801,-0.890234,89.0234)"><tspan
           id="tspan138"
           sodipodi:role="line"
           y="0"
           x="0 2.5210207 7.5635581 12.614902 17.65744 20.178495 22.699587 27.234241 32.276646 36.81123 39.332294 44.374584">Input vector</tspan></text>
<text
         id="text140"
         style="font-variant:normal;font-size:9.06897068px;font-family:f-1;-inkscape-font-specification:f-1-0;writing-mode:lr-tb;fill:#ffffff;fill-opacity:1;fill-rule:nonzero;stroke:none"
         transform="matrix(1,0,0,-0.9996801,132.80854,47.4996)"><tspan
           id="tspan142"
           y="0"
           x="0"
           style="fill:#ffffff;fill-opacity:1" /></text>
<text
         id="text144"
         style="font-variant:normal;font-weight:normal;font-size:8.97828197px;font-family:'DejaVu Sans';-inkscape-font-specification:DejaVuSans;writing-mode:lr-tb;fill:#ffffff;fill-opacity:1;fill-rule:nonzero;stroke:none"
         transform="matrix(1,0,0,-0.9996801,87.4223,38.0484)"><tspan
           id="tspan146"
           sodipodi:role="line"
           y="0"
           x="0 5.1533937 7.1467009 14.62569 19.617733 22.113817 24.107119 29.108192">Time lag</tspan></text>
</g><path
       inkscape:connector-curvature="0"
       id="path148"
       style="fill:#ffffff;fill-opacity:1;fill-rule:nonzero;stroke:none"
       d="m 218.492,100.543 c 0,-8.4141 -6.82,-15.2352 -15.238,-15.2352 -8.414,0 -15.234,6.8211 -15.234,15.2352 0,8.41 6.82,15.23 15.234,15.23 8.418,0 15.238,-6.82 15.238,-15.23" /><path
       inkscape:connector-curvature="0"
       id="path150"
       style="fill:none;stroke:#231f20;stroke-width:2;stroke-linecap:butt;stroke-linejoin:miter;stroke-miterlimit:10;stroke-dasharray:none;stroke-opacity:1"
       d="m 218.492,100.542 c 0,-8.4135 -6.82,-15.2338 -15.238,-15.2338 -8.414,0 -15.234,6.8203 -15.234,15.2338 0,8.412 6.82,15.231 15.234,15.231 8.418,0 15.238,-6.819 15.238,-15.231 z" /><g
       id="g152"
       style="fill:#000000;fill-opacity:1"><text
         id="text154"
         style="font-variant:normal;font-size:24.48623276px;font-family:f-1;-inkscape-font-specification:f-1-1;writing-mode:lr-tb;fill:#000000;fill-opacity:1;fill-rule:nonzero;stroke:none"
         transform="matrix(1,0,0,-0.9996801,195.244,93.0109)"><tspan
           id="tspan156"
           y="0"
           x="0"
           style="fill:#000000;fill-opacity:1">Σ</tspan></text>
</g><path
       inkscape:connector-curvature="0"
       id="path158"
       style="fill:#ffffff;fill-opacity:1;stroke:#ffffff;stroke-width:2;stroke-linecap:butt;stroke-linejoin:miter;stroke-miterlimit:10;stroke-dasharray:none;stroke-opacity:1"
       d="m 223.359,26.7855 -15.964,57.777" /><path
       inkscape:connector-curvature="0"
       id="path166"
       style="fill:#ffffff;fill-opacity:1;fill-rule:nonzero;stroke:none"
       d="m 172.988,115.383 1.426,-3.36 -1.426,-3.355 7.961,3.355 -7.961,3.36" /><path
       inkscape:connector-curvature="0"
       id="path170"
       style="fill:none;stroke:#231f20;stroke-width:1;stroke-linecap:butt;stroke-linejoin:miter;stroke-miterlimit:10;stroke-dasharray:none;stroke-opacity:1"
       d="m 213.559,61.9992 0.433,-1.566" /><path
       inkscape:connector-curvature="0"
       id="path172"
       style="fill:#ffffff;fill-opacity:1;fill-rule:nonzero;stroke:none"
       d="m 211.004,58.648 2.851,2.2739 3.622,-0.4731 -5.372,6.766 -1.101,-8.5668" /><path
       inkscape:connector-curvature="0"
       id="path174"
       style="fill:#ff0000;fill-opacity:1;stroke:#ffffff;stroke-width:1;stroke-linecap:butt;stroke-linejoin:miter;stroke-miterlimit:10;stroke-dasharray:none;stroke-opacity:1"
       d="m 276.551,84.6754 0,8.4918" /><path
       inkscape:connector-curvature="0"
       id="path176"
       style="fill:#ffffff;fill-opacity:1;fill-rule:nonzero;stroke:none"
       d="m 279.91,90.6211 -3.359,1.4258 -3.36,-1.4258 3.36,7.957 3.359,-7.957" /><g
       id="g178"
       style="fill:#ffffff;fill-opacity:1"><text
         id="text180"
         style="font-variant:normal;font-weight:normal;font-size:8.16207123px;font-family:'Liberation Sans';-inkscape-font-specification:LiberationSans;writing-mode:lr-tb;fill:#ffffff;fill-opacity:1;fill-rule:nonzero;stroke:none"
         transform="matrix(1,0,0,-0.9996801,226.224,129.905)"><tspan
           id="tspan182"
           sodipodi:role="line"
           y="0"
           x="0">non-linearity</tspan><tspan
           id="tspan184"
           sodipodi:role="line"
           y="54.748413"
           x="11.976932 32.37397 37.818073 40.536041 45.074154 49.612263 51.424244 55.50528 57.774334 62.312447"> Predicted</tspan><tspan
           id="tspan186"
           sodipodi:role="line"
           y="64.950874"
           x="11.976932 13.788911 18.327023 22.865133 27.403246 34.226837 38.764946 43.303059 47.841171 52.37928 56.917393 61.479919 66.018028 70.099068 72.368118 75.08609 79.624199 81.893257">inhomogeneous rate</tspan><tspan
           id="tspan188"
           sodipodi:role="line"
           y="-3.6726749"
           x="61.071037 66.515137 71.053246 72.865227 76.946266">Spike</tspan><tspan
           id="tspan190"
           sodipodi:role="line"
           y="6.529789"
           x="61.071037 65.609146 70.147263 74.685371 79.22348 81.965988 86.504097 88.773155 93.311264">generator</tspan><tspan
           id="tspan192"
           sodipodi:role="line"
           x="0"
           y="0.063964844"> </tspan></text>
</g><path
       inkscape:connector-curvature="0"
       id="path198"
       style="fill:#ffffff;fill-opacity:1;stroke:#ffffff;stroke-width:2;stroke-linecap:butt;stroke-linejoin:miter;stroke-miterlimit:10;stroke-dasharray:none;stroke-opacity:1"
       d="m 181.371,70.9492 -42.148,0" /><path
       inkscape:connector-curvature="0"
       id="path200"
       style="fill:#ffffff;fill-opacity:1;fill-rule:nonzero;stroke:none"
       d="m 172.598,74.2539 1.425,-3.3559 -1.425,-3.3589 7.961,3.3589 -7.961,3.3559" /><path
       inkscape:connector-curvature="0"
       id="path202"
       style="fill:#ffffff;fill-opacity:1;stroke:#ffffff;stroke-width:2;stroke-linecap:butt;stroke-linejoin:miter;stroke-miterlimit:10;stroke-dasharray:none;stroke-opacity:1"
       d="m 179.93,70.4105 12.769,18.9758" /><path
       inkscape:connector-curvature="0"
       id="path204"
       style="fill:#ffffff;fill-opacity:1;stroke:#ffffff;stroke-width:2;stroke-linecap:butt;stroke-linejoin:miter;stroke-miterlimit:10;stroke-dasharray:none;stroke-opacity:1"
       d="m 181.227,112.402 7.39,-6.535" /><path
       inkscape:connector-curvature="0"
       id="path36-9"
       style="fill:#ff881d;fill-opacity:1;fill-rule:nonzero;stroke:none"
       d="m 118.31679,95.92602 31.5,0 0,31.4922 -31.5,0 0,-31.4922 z" /><path
       inkscape:connector-curvature="0"
       id="path38-0"
       style="fill:none;stroke:#231f20;stroke-width:1;stroke-linecap:butt;stroke-linejoin:miter;stroke-miterlimit:10;stroke-dasharray:none;stroke-opacity:1"
       d="m 118.31679,95.92602 31.5,0 0,31.4922 -31.5,0 0,-31.4922 z" /><path
       inkscape:connector-curvature="0"
       id="path40-8"
       style="fill:#fd6b2f;fill-opacity:1;fill-rule:nonzero;stroke:none"
       d="m 126.19179,111.67302 c 0,-4.349 3.527,-7.873 7.875,-7.873 4.35,0 7.875,3.524 7.875,7.873 0,4.347 -3.525,7.873 -7.875,7.873 -4.348,0 -7.875,-3.526 -7.875,-7.873" /><path
       inkscape:connector-curvature="0"
       id="path42-5"
       style="fill:#fdac2f;fill-opacity:1;fill-rule:nonzero;stroke:none"
       d="m 127.76779,111.67302 c 0,-3.48 2.82,-6.3 6.299,-6.3 3.48,0 6.3,2.82 6.3,6.3 0,3.478 -2.82,6.297 -6.3,6.297 -3.479,0 -6.299,-2.819 -6.299,-6.297" /><path
       inkscape:connector-curvature="0"
       id="path44-7"
       style="fill:#ff881d;fill-opacity:1;fill-rule:nonzero;stroke:none"
       d="m 86.81679,95.63581 31.5,0 0,31.4922 -31.5,0 0,-31.4922 z" /><path
       inkscape:connector-curvature="0"
       id="path46-1"
       style="fill:none;stroke:#231f20;stroke-width:1;stroke-linecap:butt;stroke-linejoin:miter;stroke-miterlimit:10;stroke-dasharray:none;stroke-opacity:1"
       d="m 86.81679,95.92602 31.5,0 0,31.4922 -31.5,0 0,-31.4922 z" /><path
       inkscape:connector-curvature="0"
       id="path48-6"
       style="fill:#f8002f;fill-opacity:1;fill-rule:nonzero;stroke:none"
       d="m 88.39279,111.67302 c 0,-7.827 6.345,-14.173 14.174,-14.173 7.829,0 14.175,6.346 14.175,14.173 0,7.826 -6.346,14.169 -14.175,14.169 -7.829,0 -14.174,-6.343 -14.174,-14.169" /><path
       inkscape:connector-curvature="0"
       id="path50-9"
       style="fill:#ffff2f;fill-opacity:1;fill-rule:nonzero;stroke:none"
       d="m 91.54279,111.67302 c 0,-6.089 4.936,-11.023 11.024,-11.023 6.089,0 11.025,4.934 11.025,11.023 0,6.086 -4.936,11.021 -11.025,11.021 -6.088,0 -11.024,-4.935 -11.024,-11.021" /><path
       inkscape:connector-curvature="0"
       id="path52-84"
       style="fill:#ff881d;fill-opacity:1;fill-rule:nonzero;stroke:none"
       d="m 55.309372,95.92602 31.5,0 0,31.4922 -31.5,0 0,-31.4922 z" /><path
       inkscape:connector-curvature="0"
       id="path54-2"
       style="fill:none;stroke:#231f20;stroke-width:1;stroke-linecap:butt;stroke-linejoin:miter;stroke-miterlimit:10;stroke-dasharray:none;stroke-opacity:1"
       d="m 55.309372,95.92602 31.5,0 0,31.4922 -31.5,0 0,-31.4922 z" /><path
       inkscape:connector-curvature="0"
       id="path56-3"
       style="fill:#fa672f;fill-opacity:1;fill-rule:nonzero;stroke:none"
       d="m 60.821872,111.67302 c 0,-5.653 4.5832,-10.235 10.2375,-10.235 5.6531,0 10.2371,4.582 10.2371,10.235 0,5.652 -4.584,10.233 -10.2371,10.233 -5.6543,0 -10.2375,-4.581 -10.2375,-10.233" /><path
       inkscape:connector-curvature="0"
       id="path58-4"
       style="fill:#f8b72f;fill-opacity:1;fill-rule:nonzero;stroke:none"
       d="m 63.184372,111.67302 c 0,-4.349 3.5261,-7.873 7.875,-7.873 4.3496,0 7.875,3.524 7.875,7.873 0,4.347 -3.5254,7.873 -7.875,7.873 -4.3489,0 -7.875,-3.526 -7.875,-7.873" /><path
       inkscape:connector-curvature="0"
       id="path60-4"
       style="fill:#ff881d;fill-opacity:1;fill-rule:nonzero;stroke:none"
       d="m 118.31679,53.035231 31.5,0 0,31.500002 -31.5,0 0,-31.500002 z" /><path
       inkscape:connector-curvature="0"
       id="path62-3"
       style="fill:none;stroke:#231f20;stroke-width:1;stroke-linecap:butt;stroke-linejoin:miter;stroke-miterlimit:10;stroke-dasharray:none;stroke-opacity:1"
       d="m 118.31679,53.035231 31.5,0 0,31.500002 -31.5,0 0,-31.500002 z" /><path
       inkscape:connector-curvature="0"
       id="path64-8"
       style="fill:#ff881d;fill-opacity:1;fill-rule:nonzero;stroke:none"
       d="m 86.81679,53.035231 31.5,0 0,31.500002 -31.5,0 0,-31.500002 z" /><path
       inkscape:connector-curvature="0"
       id="path66-6"
       style="fill:none;stroke:#231f20;stroke-width:1;stroke-linecap:butt;stroke-linejoin:miter;stroke-miterlimit:10;stroke-dasharray:none;stroke-opacity:1"
       d="m 86.81679,53.035231 31.5,0 0,31.500002 -31.5,0 0,-31.500002 z" /><path
       inkscape:connector-curvature="0"
       id="path68-5"
       style="fill:#ffff00;fill-opacity:1;fill-rule:nonzero;stroke:none"
       d="m 91.54279,75.400231 c 0,-3.48 4.936,-6.3 11.024,-6.3 6.089,0 11.025,2.82 11.025,6.3 0,3.478002 -4.936,6.300002 -11.025,6.300002 -6.088,0 -11.024,-2.822 -11.024,-6.300002" /><path
       inkscape:connector-curvature="0"
       id="path70-1"
       style="fill:#ff881d;fill-opacity:1;fill-rule:nonzero;stroke:none"
       d="m 55.309372,53.035231 31.5,0 0,31.500002 -31.5,0 0,-31.500002 z" /><path
       inkscape:connector-curvature="0"
       id="path72-1"
       style="fill:none;stroke:#231f20;stroke-width:1;stroke-linecap:butt;stroke-linejoin:miter;stroke-miterlimit:10;stroke-dasharray:none;stroke-opacity:1"
       d="m 55.309372,53.035231 31.5,0 0,31.500002 -31.5,0 0,-31.500002 z" /><path
       inkscape:connector-curvature="0"
       id="path74-4"
       style="fill:#ff1f2f;fill-opacity:1;fill-rule:nonzero;stroke:none"
       d="m 91.54279,61.539231 c 0,-3.479 4.936,-6.299 11.024,-6.299 6.089,0 11.025,2.82 11.025,6.299 0,3.48 -4.936,6.3 -11.025,6.3 -6.088,0 -11.024,-2.82 -11.024,-6.3" /><path
       inkscape:connector-curvature="0"
       id="path76-9"
       style="fill:#ffff91;fill-opacity:1;fill-rule:nonzero;stroke:none"
       d="m 96.26779,75.400231 c 0,-2.611 2.82,-4.725 6.299,-4.725 3.48,0 6.3,2.114 6.3,4.725 0,2.609002 -2.82,4.724002 -6.3,4.724002 -3.479,0 -6.299,-2.115 -6.299,-4.724002" /><path
       inkscape:connector-curvature="0"
       id="path78-9"
       style="fill:#c21d00;fill-opacity:1;fill-rule:nonzero;stroke:none"
       d="m 96.26779,61.539231 c 0,-2.609 2.82,-4.725 6.299,-4.725 3.48,0 6.3,2.116 6.3,4.725 0,2.61 -2.82,4.726 -6.3,4.726 -3.479,0 -6.299,-2.116 -6.299,-4.726" /><path
       inkscape:connector-curvature="0"
       id="path80-3"
       style="fill:#fcb300;fill-opacity:1;fill-rule:nonzero;stroke:none"
       d="m 62.868672,72.847231 c 0,-2.435 3.4551,-4.409 7.7188,-4.409 4.2617,0 7.7168,1.974 7.7168,4.409 0,2.437 -3.4551,4.410002 -7.7168,4.410002 -4.2637,0 -7.7188,-1.973002 -7.7188,-4.410002" /><path
       inkscape:connector-curvature="0"
       id="path82-5"
       style="fill:#ff562f;fill-opacity:1;fill-rule:nonzero;stroke:none"
       d="m 62.868672,63.146231 c 0,-2.436 3.4551,-4.41 7.7188,-4.41 4.2617,0 7.7168,1.974 7.7168,4.41 0,2.435 -3.4551,4.41 -7.7168,4.41 -4.2637,0 -7.7188,-1.975 -7.7188,-4.41" /><path
       inkscape:connector-curvature="0"
       id="path84-0"
       style="fill:#ffff00;fill-opacity:1;fill-rule:nonzero;stroke:none"
       d="m 66.177272,72.847231 c 0,-1.826 1.9739,-3.307 4.4102,-3.307 2.4355,0 4.4094,1.481 4.4094,3.307 0,1.828 -1.9739,3.309 -4.4094,3.309 -2.4363,0 -4.4102,-1.481 -4.4102,-3.309" /><path
       inkscape:connector-curvature="0"
       id="path86-3"
       style="fill:#fb4f00;fill-opacity:1;fill-rule:nonzero;stroke:none"
       d="m 66.177272,63.146231 c 0,-1.827 1.9739,-3.309 4.4102,-3.309 2.4355,0 4.4094,1.482 4.4094,3.309 0,1.826 -1.9739,3.308 -4.4094,3.308 -2.4363,0 -4.4102,-1.482 -4.4102,-3.308" /><path
       inkscape:connector-curvature="0"
       id="path88-3"
       style="fill:#fcb300;fill-opacity:1;fill-rule:nonzero;stroke:none"
       d="m 129.34179,70.810231 c 0,-1.492 2.116,-2.701 4.725,-2.701 2.61,0 4.726,1.209 4.726,2.701 0,1.49 -2.116,2.699 -4.726,2.699 -2.609,0 -4.725,-1.209 -4.725,-2.699" /><path
       inkscape:connector-curvature="0"
       id="path90-9"
       style="fill:#ff562f;fill-opacity:1;fill-rule:nonzero;stroke:none"
       d="m 129.34179,64.870231 c 0,-1.492 2.116,-2.701 4.725,-2.701 2.61,0 4.726,1.209 4.726,2.701 0,1.491 -2.116,2.7 -4.726,2.7 -2.609,0 -4.725,-1.209 -4.725,-2.7" /><text
       xml:space="preserve"
       style="font-style:normal;font-weight:normal;font-size:20px;line-height:125%;font-family:Arial;-inkscape-font-specification:Arial;letter-spacing:0px;word-spacing:0px;fill:#ffffff;fill-opacity:1;stroke:none;stroke-width:1px;stroke-linecap:butt;stroke-linejoin:miter;stroke-opacity:1;"
       x="75.328407"
       y="-133.73599"
       id="text12243"
       sodipodi:linespacing="125%"
       transform="scale(1,-1)"><tspan
         sodipodi:role="line"
         id="tspan12245"
         x="75.328407"
         y="-133.73599"
         style="font-size:8px;fill:#ffffff;fill-opacity:1;">stimulus filters</tspan></text>
</g></svg>