<?xml version="1.0" encoding="UTF-8" standalone="no"?>
<!-- Created with Inkscape (http://www.inkscape.org/) -->

<svg
   xmlns:dc="http://purl.org/dc/elements/1.1/"
   xmlns:cc="http://creativecommons.org/ns#"
   xmlns:rdf="http://www.w3.org/1999/02/22-rdf-syntax-ns#"
   xmlns:svg="http://www.w3.org/2000/svg"
   xmlns="http://www.w3.org/2000/svg"
   xmlns:sodipodi="http://sodipodi.sourceforge.net/DTD/sodipodi-0.dtd"
   xmlns:inkscape="http://www.inkscape.org/namespaces/inkscape"
   id="svg2"
   version="1.1"
   inkscape:version="0.91 r"
   width="473.64679"
   height="250.89601"
   xml:space="preserve"
   sodipodi:docname="intrinsic_manifold.svg"><metadata
     id="metadata8"><rdf:RDF><cc:Work
         rdf:about=""><dc:format>image/svg+xml</dc:format><dc:type
           rdf:resource="http://purl.org/dc/dcmitype/StillImage" /><dc:title></dc:title></cc:Work></rdf:RDF></metadata><defs
     id="defs6"><clipPath
       clipPathUnits="userSpaceOnUse"
       id="clipPath16"><path
         d="M 0,612 792,612 792,0 0,0 0,612 Z"
         id="path18"
         inkscape:connector-curvature="0" /></clipPath><clipPath
       clipPathUnits="userSpaceOnUse"
       id="clipPath24"><path
         d="m 58.1226,465.945 106.2384,0 0,-145.279 -106.2384,0 0,145.279 z"
         id="path26"
         inkscape:connector-curvature="0" /></clipPath><clipPath
       clipPathUnits="userSpaceOnUse"
       id="clipPath40"><path
         d="m 69.5996,428.092 233.3784,0 0,-103.916 -233.3784,0 0,103.916 z"
         id="path42"
         inkscape:connector-curvature="0" /></clipPath><clipPath
       clipPathUnits="userSpaceOnUse"
       id="clipPath56"><path
         d="m 160.658,497.278 7.406,0 0,-108.334 -7.406,0 0,108.334 z"
         id="path58"
         inkscape:connector-curvature="0" /></clipPath><clipPath
       clipPathUnits="userSpaceOnUse"
       id="clipPath80"><path
         d="m 164.361,393.647 163.972,0 0,-7.406 -163.972,0 0,7.406 z"
         id="path82"
         inkscape:connector-curvature="0" /></clipPath><clipPath
       clipPathUnits="userSpaceOnUse"
       id="clipPath104"><path
         d="m 40.7251,390.101 123.9089,0 0,-80.761 -123.9089,0 0,80.761 z"
         id="path106"
         inkscape:connector-curvature="0" /></clipPath><clipPath
       clipPathUnits="userSpaceOnUse"
       id="clipPath152"><path
         d="M 0,612 792,612 792,0 0,0 0,612 Z"
         id="path154"
         inkscape:connector-curvature="0" /></clipPath><clipPath
       clipPathUnits="userSpaceOnUse"
       id="clipPath160"><path
         d="m 84.2422,425.06 80.4868,0 0,-87.54 -80.4868,0 0,87.54 z"
         id="path162"
         inkscape:connector-curvature="0" /></clipPath><clipPath
       clipPathUnits="userSpaceOnUse"
       id="clipPath176"><path
         d="m 69.5996,428.092 94.7614,0 0,-90.234 -94.7614,0 0,90.234 z"
         id="path178"
         inkscape:connector-curvature="0" /></clipPath><clipPath
       clipPathUnits="userSpaceOnUse"
       id="clipPath214"><path
         d="M 0,612 792,612 792,0 0,0 0,612 Z"
         id="path216"
         inkscape:connector-curvature="0" /></clipPath></defs><sodipodi:namedview
     pagecolor="#ffffff"
     bordercolor="#666666"
     borderopacity="1"
     objecttolerance="10"
     gridtolerance="10"
     guidetolerance="10"
     inkscape:pageopacity="0"
     inkscape:pageshadow="2"
     inkscape:window-width="1323"
     inkscape:window-height="744"
     id="namedview4"
     showgrid="false"
     inkscape:zoom="1.5111519"
     inkscape:cx="234.32514"
     inkscape:cy="107.85753"
     inkscape:window-x="43"
     inkscape:window-y="24"
     inkscape:window-maximized="1"
     inkscape:current-layer="g10"
     fit-margin-top="0"
     fit-margin-left="0"
     fit-margin-right="0"
     fit-margin-bottom="0" /><g
     id="g10"
     inkscape:groupmode="layer"
     inkscape:label="intrinsic_manifold"
     transform="matrix(1.25,0,0,-1.25,22.245757,622.984)"><g
       id="g12"><g
         id="g14"
         clip-path="url(#clipPath16)"><g
           id="g20"><g
             id="g22" /><g
             id="g28"><g
               clip-path="url(#clipPath24)"
               id="g30"
               style="opacity:0.30000299"><g
                 transform="translate(58.1226,320.666)"
                 id="g32"><path
                   d="m 0,0 106.239,69.278 0,76.001 L 0,75.027 0,0 Z"
                   style="fill:#5869af;fill-opacity:1;fill-rule:nonzero;stroke:none"
                   id="path34"
                   inkscape:connector-curvature="0" /></g></g></g></g><g
           id="g36"><g
             id="g38" /><g
             id="g44"><g
               clip-path="url(#clipPath40)"
               id="g46"
               style="opacity:0.30000299"><g
                 transform="translate(248.6299,324.1758)"
                 id="g48"><path
                   d="m 0,0 -179.03,14.934 54.347,88.983 L 54.348,88.982 0,0 Z"
                   style="fill:#f26a45;fill-opacity:1;fill-rule:nonzero;stroke:none"
                   id="path50"
                   inkscape:connector-curvature="0" /></g></g></g></g><g
           id="g52"><g
             id="g54" /><g
             id="g60"><g
               clip-path="url(#clipPath56)"
               id="g62"
               style="opacity:0.57000703"><g
                 transform="translate(164.3613,497.2778)"
                 id="g64"><path
                   d="M 0,0 0,-108.333"
                   style="fill:#ffffff;fill-opacity:1;fill-rule:nonzero;stroke:none"
                   id="path66"
                   inkscape:connector-curvature="0" /></g><g
                 transform="translate(164.3613,491.3081)"
                 id="g68"><path
                   d="M 0,0 0,-102.364"
                   style="fill:none;stroke:#373535;stroke-width:1;stroke-linecap:butt;stroke-linejoin:miter;stroke-miterlimit:10;stroke-dasharray:none;stroke-opacity:1"
                   id="path70"
                   inkscape:connector-curvature="0" /></g><g
                 transform="translate(160.6582,488.4995)"
                 id="g72"><path
                   d="M 0,0 3.703,1.573 7.406,0 3.703,8.778 0,0 Z"
                   style="fill:#373535;fill-opacity:1;fill-rule:nonzero;stroke:none"
                   id="path74"
                   inkscape:connector-curvature="0" /></g></g></g></g><g
           id="g76"><g
             id="g78" /><g
             id="g84"><g
               clip-path="url(#clipPath80)"
               id="g86"
               style="opacity:0.57000703"><g
                 transform="translate(164.3613,389.9443)"
                 id="g88"><path
                   d="M 0,0 163.972,0"
                   style="fill:#ffffff;fill-opacity:1;fill-rule:nonzero;stroke:none"
                   id="path90"
                   inkscape:connector-curvature="0" /></g><g
                 transform="translate(164.3613,389.9443)"
                 id="g92"><path
                   d="M 0,0 158.002,0"
                   style="fill:none;stroke:#373535;stroke-width:1;stroke-linecap:butt;stroke-linejoin:miter;stroke-miterlimit:10;stroke-dasharray:none;stroke-opacity:1"
                   id="path94"
                   inkscape:connector-curvature="0" /></g><g
                 transform="translate(319.5552,386.2412)"
                 id="g96"><path
                   d="M 0,0 1.573,3.703 0,7.406 8.778,3.703 0,0 Z"
                   style="fill:#373535;fill-opacity:1;fill-rule:nonzero;stroke:none"
                   id="path98"
                   inkscape:connector-curvature="0" /></g></g></g></g><g
           id="g100"><g
             id="g102" /><g
             id="g108"><g
               clip-path="url(#clipPath104)"
               id="g110"
               style="opacity:0.57000703"><g
                 transform="translate(40.7251,309.3403)"
                 id="g112"><path
                   d="M 0,0 123.636,80.341"
                   style="fill:#ffffff;fill-opacity:1;fill-rule:nonzero;stroke:none"
                   id="path114"
                   inkscape:connector-curvature="0" /></g><g
                 transform="translate(45.731,312.5933)"
                 id="g116"><path
                   d="M 0,0 118.63,77.088"
                   style="fill:none;stroke:#373535;stroke-width:1;stroke-linecap:butt;stroke-linejoin:miter;stroke-miterlimit:10;stroke-dasharray:none;stroke-opacity:1"
                   id="path118"
                   inkscape:connector-curvature="0" /></g><g
                 transform="translate(50.1035,311.0186)"
                 id="g120"><path
                   d="M 0,0 -3.337,2.248 -4.036,6.21 -9.378,-1.678 0,0 Z"
                   style="fill:#373535;fill-opacity:1;fill-rule:nonzero;stroke:none"
                   id="path122"
                   inkscape:connector-curvature="0" /></g></g></g></g></g></g><text
       transform="matrix(1,0,0,-1,148.3335,491.6665)"
       id="text124"><tspan
         style="font-variant:normal;font-weight:normal;font-stretch:normal;font-size:12px;font-family:'Myriad Pro';-inkscape-font-specification:MyriadPro-Regular;writing-mode:lr-tb;fill:#373535;fill-opacity:1;fill-rule:nonzero;stroke:none"
         x="0"
         y="0"
         id="tspan126">n</tspan></text>
<text
       transform="matrix(1,0,0,-1,154.9937,487.6704)"
       id="text128"><tspan
         style="font-variant:normal;font-weight:normal;font-stretch:normal;font-size:6.99599981px;font-family:'Myriad Pro';-inkscape-font-specification:MyriadPro-Regular;writing-mode:lr-tb;fill:#373535;fill-opacity:1;fill-rule:nonzero;stroke:none"
         x="0"
         y="0"
         id="tspan130">2</tspan></text>
<text
       transform="matrix(1,0,0,-1,51.8745,301.6665)"
       id="text132"><tspan
         style="font-variant:normal;font-weight:normal;font-stretch:normal;font-size:12px;font-family:'Myriad Pro';-inkscape-font-specification:MyriadPro-Regular;writing-mode:lr-tb;fill:#373535;fill-opacity:1;fill-rule:nonzero;stroke:none"
         x="0"
         y="0"
         id="tspan134">n</tspan></text>
<text
       transform="matrix(1,0,0,-1,58.5347,297.6704)"
       id="text136"><tspan
         style="font-variant:normal;font-weight:normal;font-stretch:normal;font-size:6.99599981px;font-family:'Myriad Pro';-inkscape-font-specification:MyriadPro-Regular;writing-mode:lr-tb;fill:#373535;fill-opacity:1;fill-rule:nonzero;stroke:none"
         x="0"
         y="0"
         id="tspan138">1</tspan></text>
<text
       transform="matrix(1,0,0,-1,328.3335,376.1343)"
       id="text140"><tspan
         style="font-variant:normal;font-weight:normal;font-stretch:normal;font-size:12px;font-family:'Myriad Pro';-inkscape-font-specification:MyriadPro-Regular;writing-mode:lr-tb;fill:#373535;fill-opacity:1;fill-rule:nonzero;stroke:none"
         x="0"
         y="0"
         id="tspan142">n</tspan></text>
<text
       transform="matrix(1,0,0,-1,334.9937,372.1382)"
       id="text144"><tspan
         style="font-variant:normal;font-weight:normal;font-stretch:normal;font-size:6.99599981px;font-family:'Myriad Pro';-inkscape-font-specification:MyriadPro-Regular;writing-mode:lr-tb;fill:#373535;fill-opacity:1;fill-rule:nonzero;stroke:none"
         x="0"
         y="0"
         id="tspan146">3</tspan></text>
<g
       id="g148"><g
         id="g150"
         clip-path="url(#clipPath152)"><g
           id="g156"><g
             id="g158" /><g
             id="g164"><g
               clip-path="url(#clipPath160)"
               id="g166"
               style="opacity:0.60000598"><g
                 transform="translate(84.6104,337.8579)"
                 id="g168"><path
                   d="M 0,0 79.751,86.863"
                   style="fill:none;stroke:#333031;stroke-width:1;stroke-linecap:butt;stroke-linejoin:miter;stroke-miterlimit:10;stroke-dasharray:none;stroke-opacity:1"
                   id="path170"
                   inkscape:connector-curvature="0" /></g></g></g></g><g
           id="g172"><g
             id="g174" /><g
             id="g180"><g
               clip-path="url(#clipPath176)"
               id="g182"
               style="opacity:0.30000299"><g
                 transform="translate(84.6104,337.8579)"
                 id="g184"><path
                   d="M 0,0 -15.011,1.252 39.336,90.234 79.751,86.863 0,0 Z"
                   style="fill:#5869b0;fill-opacity:1;fill-rule:nonzero;stroke:none"
                   id="path186"
                   inkscape:connector-curvature="0" /></g></g></g></g><g
           id="g188"
           transform="translate(253.9229,384.6816)"><path
             d="m 0,0 c -2.894,2.142 -4.612,5.726 -7.623,7.861 -5.376,3.811 -11.219,4.866 -17.315,6.741 -11.602,3.566 -25.102,3.751 -37.18,3.751 -9.901,0 -20.563,0.454 -28.643,-6.291 -11.997,-10.016 -7.999,-25.2 3.795,-33.742 9.544,-6.913 21.515,-10.931 33.027,-13.098 11.222,-2.111 24.958,-5.833 36.473,-3.808 5.871,1.032 13.102,5.374 17.24,9.741 2.979,3.146 2.441,7.35 1.09,11.175 -4.51,12.775 -12.608,24.675 -25.359,30.356 -13.093,5.832 -24.626,8.418 -38.902,8.465 -14.384,0.049 -26.326,-5.381 -37.27,-14.246 -6.168,-4.995 -9.577,-10.491 -10.079,-18.43 -0.307,-4.862 1.19,-9.708 3.908,-13.791"
             style="fill:none;stroke:#f26a45;stroke-width:2;stroke-linecap:butt;stroke-linejoin:miter;stroke-miterlimit:10;stroke-dasharray:none;stroke-opacity:1"
             id="path190"
             inkscape:connector-curvature="0" /></g><g
           id="g192"
           transform="translate(142.5459,359.2886)"><path
             d="M 0,0 3.865,1.118 5.744,4.676 8.414,-4.47 0,0 Z"
             style="fill:#f26a45;fill-opacity:1;fill-rule:nonzero;stroke:none"
             id="path194"
             inkscape:connector-curvature="0" /></g><g
           id="g196"
           transform="translate(129.3247,376.7856)"><path
             d="m 0,0 c 1.404,1.804 4.03,4.519 5.419,6.33 2.478,3.231 2.777,4.548 3.689,6.472 1.736,3.661 0.68,5.1 -0.394,6.269 C 7.835,20.03 7.241,21.387 1.291,17.37 -7.542,11.409 -18.963,0.221 -24.541,-6.998 c -4.513,-5.842 -6.566,-9.86 -7.223,-12.516 -0.642,-2.59 -2.308,-6.568 0.285,-6.241 1.323,0.165 5.333,2.552 9.087,5.258 2.704,1.95 5.918,4.992 8.764,7.844 9.507,9.524 18.017,18.772 21.29,24.049 3.36,5.417 4.341,8.373 3.11,9.791 -1.24,1.427 -6.513,-1.279 -14.36,-6.524 -4.422,-2.957 -8.988,-6.536 -15.19,-12.135 -3.463,-3.127 -6.782,-6.389 -9.558,-9.341"
             style="fill:none;stroke:#5869b0;stroke-width:2;stroke-linecap:butt;stroke-linejoin:miter;stroke-miterlimit:10;stroke-dasharray:none;stroke-opacity:1"
             id="path198"
             inkscape:connector-curvature="0" /></g><g
           id="g200"
           transform="translate(100.2007,374.4961)"><path
             d="M 0,0 1.674,-3.659 5.47,-4.993 -3.184,-8.98 0,0 Z"
             style="fill:#5869b0;fill-opacity:1;fill-rule:nonzero;stroke:none"
             id="path202"
             inkscape:connector-curvature="0" /></g></g></g><text
       transform="matrix(1,0,0,-1,23.2251,435.0059)"
       id="text204"><tspan
         style="font-variant:normal;font-weight:normal;font-stretch:normal;font-size:10.49400043px;font-family:'Myriad Pro';-inkscape-font-specification:MyriadPro-Regular;writing-mode:lr-tb;fill:#373535;fill-opacity:1;fill-rule:nonzero;stroke:none"
         x="0 5.687748 9.0668163 14.124924 16.580521 22.40469 24.629417 29.267767 35.028973 40.811165 44.284679 47.611279 53.372482 55.849068 58.073795 62.22942 68.200508 73.258614 77.896965"
         y="0"
         sodipodi:role="line"
         id="tspan206">Brain control space</tspan><tspan
         style="font-variant:normal;font-weight:normal;font-stretch:normal;font-size:10.49400043px;font-family:'Myriad Pro';-inkscape-font-specification:MyriadPro-Regular;writing-mode:lr-tb;fill:#373535;fill-opacity:1;fill-rule:nonzero;stroke:none"
         x="261.77283 264.38583 270.16803 273.64154 277.11505 279.57065 285.39484 289.55045 292.00604 296.70737 298.9321 307.68408 312.74219 318.56635 321.02194 323.94977 329.711 332.18756"
         y="10.777338"
         sodipodi:role="line"
         id="tspan208">Intrinsic manifold</tspan></text>
<g
       id="g218"
       transform="translate(164.3613,424.7212)"><path
         d="M 0,0 38.002,0"
         style="fill:none;stroke:#5869b0;stroke-width:2;stroke-linecap:butt;stroke-linejoin:miter;stroke-miterlimit:10;stroke-dasharray:none;stroke-opacity:1"
         id="path220"
         inkscape:connector-curvature="0" /></g><g
       id="g222"
       transform="translate(199.5552,421.0181)"><path
         d="M 0,0 1.573,3.703 0,7.406 8.778,3.703 0,0 Z"
         style="fill:#5869b0;fill-opacity:1;fill-rule:nonzero;stroke:none"
         id="path224"
         inkscape:connector-curvature="0" /></g><g
       id="g226"
       transform="translate(174.7144,425.5142)"><path
         d="m 0,0 c 0,4.28 -3.469,7.749 -7.749,7.749 -4.279,0 -5.327,-2.123 -5.327,-2.123"
         style="fill:none;stroke:#373535;stroke-width:2;stroke-linecap:butt;stroke-linejoin:miter;stroke-miterlimit:10;stroke-dasharray:none;stroke-opacity:1"
         id="path228"
         inkscape:connector-curvature="0" /></g><g
       id="g230"
       transform="translate(164.3613,424.7212)"><path
         d="M 0,0 -12.489,30.423"
         style="fill:none;stroke:#f26b45;stroke-width:2;stroke-linecap:butt;stroke-linejoin:miter;stroke-miterlimit:10;stroke-dasharray:none;stroke-opacity:1"
         id="path232"
         inkscape:connector-curvature="0" /></g><g
       id="g234"
       transform="translate(156.3643,453.9521)"><path
         d="M 0,0 -4.023,0.049 -6.851,-2.813 -6.759,6.714 0,0 Z"
         style="fill:#f26b45;fill-opacity:1;fill-rule:nonzero;stroke:none"
         id="path236"
         inkscape:connector-curvature="0" /></g><text
       transform="matrix(1,0,0,-1,179,442.5059)"
       id="text238"><tspan
         style="font-variant:normal;font-weight:normal;font-stretch:normal;font-size:10.49400043px;font-family:'Myriad Pro';-inkscape-font-specification:MyriadPro-Regular;writing-mode:lr-tb;fill:#373535;fill-opacity:1;fill-rule:nonzero;stroke:none"
         x="0 5.4149041 8.8884182 11.344014 17.168184 21.869495 24.325092 30.296179 35.354286 37.830872 40.055599 45.113705 50.937878 56.804024 59.280605"
         y="0"
         sodipodi:role="line"
         id="tspan240">Principal angle</tspan></text>
<text
       xml:space="preserve"
       style="font-style:normal;font-weight:normal;font-size:38.40000153px;line-height:125%;font-family:Arial;-inkscape-font-specification:Arial;letter-spacing:0px;word-spacing:0px;fill:#f26b45;fill-opacity:1;stroke:none"
       x="238.90041"
       y="-333.55298"
       id="text3217"
       sodipodi:linespacing="125%"
       transform="scale(1,-1)"><tspan
         sodipodi:role="line"
         id="tspan3219"
         x="238.90041"
         y="-333.55298"
         style="font-size:10.39999962px;fill:#f26b45;fill-opacity:1">Neural activity projected</tspan><tspan
         sodipodi:role="line"
         x="238.90041"
         y="-320.55298"
         id="tspan3221"
         style="font-size:10.39999962px;fill:#f26b45;fill-opacity:1">onto intrinsic manifold</tspan></text>
<text
       xml:space="preserve"
       style="font-style:normal;font-weight:normal;font-size:38.40000153px;line-height:125%;font-family:Arial;-inkscape-font-specification:Arial;letter-spacing:0px;word-spacing:0px;fill:#5869b0;fill-opacity:1;stroke:none"
       x="-18.233324"
       y="-408.71796"
       id="text3217-5"
       sodipodi:linespacing="125%"
       transform="scale(1,-1)"><tspan
         sodipodi:role="line"
         id="tspan3219-6"
         x="-18.233324"
         y="-408.71796"
         style="font-size:10.39999962px;fill:#5869b0;fill-opacity:1">Neural activity projected</tspan><tspan
         sodipodi:role="line"
         x="-18.233324"
         y="-395.71796"
         id="tspan3221-1"
         style="font-size:10.39999962px;fill:#5869b0;fill-opacity:1">onto brain-control space</tspan></text>
</g></svg>