<?xml version="1.0" encoding="UTF-8" standalone="no"?>
<!-- Created with Inkscape (http://www.inkscape.org/) -->

<svg
   xmlns:dc="http://purl.org/dc/elements/1.1/"
   xmlns:cc="http://creativecommons.org/ns#"
   xmlns:rdf="http://www.w3.org/1999/02/22-rdf-syntax-ns#"
   xmlns:svg="http://www.w3.org/2000/svg"
   xmlns="http://www.w3.org/2000/svg"
   xmlns:sodipodi="http://sodipodi.sourceforge.net/DTD/sodipodi-0.dtd"
   xmlns:inkscape="http://www.inkscape.org/namespaces/inkscape"
   id="svg6617"
   version="1.1"
   inkscape:version="0.91 r"
   xml:space="preserve"
   width="191.43988"
   height="206.20274"
   viewBox="0 0 191.43988 206.20274"
   sodipodi:docname="TE_part5.svg"
   inkscape:export-filename="/home/lansdell/projects/presentations/defense/assets/TE_part2.png"
   inkscape:export-xdpi="150"
   inkscape:export-ydpi="150"><metadata
     id="metadata6623"><rdf:RDF><cc:Work
         rdf:about=""><dc:format>image/svg+xml</dc:format><dc:type
           rdf:resource="http://purl.org/dc/dcmitype/StillImage" /><dc:title></dc:title></cc:Work></rdf:RDF></metadata><defs
     id="defs6621"><clipPath
       clipPathUnits="userSpaceOnUse"
       id="clipPath6997"><path
         d="m 1454.01,3067.75 619.5,0 0,655.648 -619.5,0 0,-655.648 z"
         id="path6999"
         inkscape:connector-curvature="0" /></clipPath><clipPath
       clipPathUnits="userSpaceOnUse"
       id="clipPath7029"><path
         d="m 2094.93,3067.75 106.82,0 0,655.648 -106.82,0 0,-655.648 z"
         id="path7031"
         inkscape:connector-curvature="0" /></clipPath><clipPath
       clipPathUnits="userSpaceOnUse"
       id="clipPath7057"><path
         d="m 2442.56,3072.43 619.492,0 0,655.641 -619.492,0 0,-655.641 z"
         id="path7059"
         inkscape:connector-curvature="0" /></clipPath><clipPath
       clipPathUnits="userSpaceOnUse"
       id="clipPath7089"><path
         d="m 3083.5,3072.43 106.789,0 0,655.641 -106.789,0 0,-655.641 z"
         id="path7091"
         inkscape:connector-curvature="0" /></clipPath><clipPath
       clipPathUnits="userSpaceOnUse"
       id="clipPath7109"><path
         d="m 491.371,3066.04 619.488,0 0,655.637 -619.488,0 0,-655.637 z"
         id="path7111"
         inkscape:connector-curvature="0" /></clipPath><clipPath
       clipPathUnits="userSpaceOnUse"
       id="clipPath7155"><path
         d="m 1132.3,3066.04 106.809,0 0,655.637 -106.809,0 0,-655.637 z"
         id="path7157"
         inkscape:connector-curvature="0" /></clipPath></defs><sodipodi:namedview
     pagecolor="#ffffff"
     bordercolor="#666666"
     borderopacity="1"
     objecttolerance="10"
     gridtolerance="10"
     guidetolerance="10"
     inkscape:pageopacity="0"
     inkscape:pageshadow="2"
     inkscape:window-width="1323"
     inkscape:window-height="744"
     id="namedview6619"
     showgrid="false"
     inkscape:zoom="1.4680217"
     inkscape:cx="119.7261"
     inkscape:cy="94.618347"
     inkscape:window-x="43"
     inkscape:window-y="24"
     inkscape:window-maximized="1"
     inkscape:current-layer="g6625"
     fit-margin-top="0"
     fit-margin-left="0"
     fit-margin-right="0"
     fit-margin-bottom="0" /><g
     id="g6625"
     inkscape:groupmode="layer"
     inkscape:label="ink_ext_XXXXXX"
     transform="matrix(1.25,0,0,-1.25,-0.80039436,235.24588)"><rect
       style="color:#000000;clip-rule:nonzero;display:inline;overflow:visible;visibility:visible;opacity:1;isolation:auto;mix-blend-mode:normal;color-interpolation:sRGB;color-interpolation-filters:linearRGB;solid-color:#000000;solid-opacity:1;fill:#ffffff;fill-opacity:1;fill-rule:nonzero;stroke:none;stroke-width:0.875;stroke-linecap:butt;stroke-linejoin:miter;stroke-miterlimit:10;stroke-dasharray:none;stroke-dashoffset:0;stroke-opacity:1;marker:none;color-rendering:auto;image-rendering:auto;shape-rendering:auto;text-rendering:auto;enable-background:accumulate"
       id="rect17966"
       width="22.022623"
       height="22.689976"
       x="131.76959"
       y="-124.65588"
       transform="scale(1,-1)"
       rx="0.0061835521"
       ry="1.817784" /><path
       inkscape:connector-curvature="0"
       id="path132"
       style="fill:none;stroke:#444041;stroke-width:0.11753;stroke-linecap:square;stroke-linejoin:round;stroke-miterlimit:10;stroke-dasharray:none;stroke-opacity:1"
       d="m 109.9133,91.244707 0,-0.9653 m -24.065,0.9653 0,-0.9653 m 24.472,88.809203 0,-0.963 m -24.066,0.963 0,-0.963" /><path
       inkscape:connector-curvature="0"
       id="path134"
       style="fill:#4150ab;fill-opacity:1;fill-rule:nonzero;stroke:none"
       d="m 76.6283,120.08161 19.2527,0 0,60.0066 -19.2527,0 0,-60.0066 z" /><path
       inkscape:connector-curvature="0"
       id="path136"
       style="fill:none;stroke:#231f20;stroke-width:0.56344599;stroke-linecap:butt;stroke-linejoin:miter;stroke-miterlimit:4;stroke-dasharray:none;stroke-opacity:1"
       d="m 76.6283,120.08161 19.2527,0 0,60.0066 -19.2527,0 0,-60.0066 z" /><path
       inkscape:connector-curvature="0"
       id="path142"
       style="fill:#46a981;fill-opacity:1;fill-rule:nonzero;stroke:none"
       d="m 76.2213,49.799807 19.2531,0 0,41.4449 -19.2531,0 0,-41.4449 z" /><path
       inkscape:connector-curvature="0"
       id="path144"
       style="fill:none;stroke:#231f20;stroke-width:0.56344599;stroke-linecap:butt;stroke-linejoin:miter;stroke-miterlimit:4;stroke-dasharray:none;stroke-opacity:1"
       d="m 76.2213,49.799807 19.2531,0 0,41.4449 -19.2531,0 0,-41.4449 z" /><path
       inkscape:connector-curvature="0"
       id="path150"
       style="fill:none;stroke:#231f20;stroke-width:0.56344599;stroke-linecap:butt;stroke-linejoin:round;stroke-miterlimit:4;stroke-dasharray:none;stroke-opacity:1"
       d="m 86.2543,117.24761 0,2.812" /><path
       inkscape:connector-curvature="0"
       id="path154"
       style="fill:none;stroke:#231f20;stroke-width:0.56344599;stroke-linecap:butt;stroke-linejoin:round;stroke-miterlimit:4;stroke-dasharray:none;stroke-opacity:1"
       d="m 85.8483,46.424807 0,3.3636" /><path
       inkscape:connector-curvature="0"
       id="path156"
       style="fill:none;stroke:#231f20;stroke-width:0.56344599;stroke-linecap:butt;stroke-linejoin:round;stroke-miterlimit:4;stroke-dasharray:none;stroke-opacity:1"
       d="m 109.9133,65.870507 0,4.007" /><path
       inkscape:connector-curvature="0"
       id="path158"
       style="fill:none;stroke:#231f20;stroke-width:0.56344599;stroke-linecap:butt;stroke-linejoin:round;stroke-miterlimit:4;stroke-dasharray:none;stroke-opacity:1"
       d="m 109.1923,65.870507 1.444,0 m -25.51,-19.4457 1.445,0 m 23.027,102.861803 1.443,0 m -25.508,-32.039 1.443,0" /><path
       inkscape:connector-curvature="0"
       id="path210"
       style="fill:#323087;fill-opacity:1;fill-rule:nonzero;stroke:none"
       d="m 118.63063,81.643507 19.602,0 0,9.60195 -19.602,0 0,-9.60195 z" /><path
       inkscape:connector-curvature="0"
       id="path214"
       style="fill:#4150ab;fill-opacity:1;fill-rule:nonzero;stroke:none"
       d="m 118.75163,120.56761 19.602,0 0,59.777 -19.602,0 0,-59.777 z" /><path
       inkscape:connector-curvature="0"
       id="path216"
       style="fill:none;stroke:#000000;stroke-width:0.56300002;stroke-linecap:butt;stroke-linejoin:miter;stroke-miterlimit:10;stroke-dasharray:1.5813, 0.527102;stroke-dashoffset:0;stroke-opacity:1"
       d="m 118.75163,120.56761 19.602,0 0,59.777 -19.602,0 0,-59.777 z" /><path
       inkscape:connector-curvature="0"
       id="path222"
       style="fill:#46a981;fill-opacity:1;fill-rule:nonzero;stroke:none"
       d="m 118.63063,81.643507 19.602,0 0,9.60195 -19.602,0 0,-9.60195 z" /><path
       inkscape:connector-curvature="0"
       id="path224"
       style="fill:none;stroke:#000000;stroke-width:0.56300002;stroke-linecap:butt;stroke-linejoin:miter;stroke-miterlimit:10;stroke-dasharray:1.5813, 0.527102;stroke-dashoffset:0;stroke-opacity:1"
       d="m 118.63063,81.643507 19.602,0 0,9.60195 -19.602,0 0,-9.60195 z" /><path
       inkscape:connector-curvature="0"
       id="path228"
       style="fill:none;stroke:#231f20;stroke-width:0.56344599;stroke-linecap:butt;stroke-linejoin:round;stroke-miterlimit:10;stroke-dasharray:none;stroke-opacity:1"
       d="m 152.19763,59.051707 1.471,0 m -25.971,17.2418 1.469,0 m 23.153,79.301103 1.469,0 m -25.971,-41.047 1.47,0 m 23.646,-55.495903 0,4.2777 m -24.502,12.9641 0,5.4152 m 24.622,73.885903 0,3.848 m -24.501,-44.895 0,6.037" /><path
       inkscape:connector-curvature="0"
       id="path246"
       style="fill:none;stroke:#444041;stroke-width:0.14956599;stroke-linecap:square;stroke-linejoin:round;stroke-miterlimit:10;stroke-dasharray:none;stroke-opacity:1"
       d="m 100.65489,91.183707 0,-0.982 m -24.550397,0.982 0,-0.982" /><path
       inkscape:connector-curvature="0"
       id="path272"
       style="fill:#ffffff;fill-opacity:1;fill-rule:nonzero;stroke:none"
       d="m 64.307593,91.662607 0,-68.1781" /><path
       inkscape:connector-curvature="0"
       id="path274"
       style="fill:none;stroke:#231f20;stroke-width:0.5;stroke-linecap:square;stroke-linejoin:round;stroke-miterlimit:10;stroke-dasharray:none;stroke-opacity:1"
       d="m 64.786893,91.662607 85.167397,0" /><path
       inkscape:connector-curvature="0"
       id="path276"
       style="fill:none;stroke:#444041;stroke-width:0.5;stroke-linecap:square;stroke-linejoin:round;stroke-miterlimit:10;stroke-dasharray:none;stroke-opacity:1"
       d="m 64.307593,91.662607 0.9825,0 m -0.9825,-19.4789 0.9825,0 m -0.9825,-19.48 0.9825,0 m -0.9825,-19.4789 0.9825,0 m -0.9825,-9.7403 0.9825,0 m -0.9825,0 0,68.1781" /><text
       transform="scale(0.99984499,-1.000155)"
       style="font-variant:normal;font-weight:normal;font-size:3.99937987px;font-family:ArialMT;-inkscape-font-specification:ArialMT;writing-mode:lr-tb;fill:#231f20;fill-opacity:1;fill-rule:nonzero;stroke:none"
       id="text280"
       x="56.292919"
       y="-32.205715"><tspan
         x="56.292919 57.624714 59.84837 60.960197"
         y="-32.205715"
         sodipodi:role="line"
         id="tspan282">-1.2</tspan><tspan
         x="56.292919 57.624714 59.84837 60.960197"
         y="-51.684696"
         sodipodi:role="line"
         id="tspan284">-0.8</tspan><tspan
         x="56.292919 57.624714 59.84837 60.960197"
         y="-71.162575"
         sodipodi:role="line"
         id="tspan286">-0.4</tspan><tspan
         x="60.106007"
         y="-90.637657"
         id="tspan288">0</tspan></text>
<text
       transform="matrix(0,1,1,0,0,0)"
       style="font-variant:normal;font-weight:normal;font-size:6px;font-family:ArialMT;-inkscape-font-specification:ArialMT;writing-mode:lr-tb;fill:#231f20;fill-opacity:1;fill-rule:nonzero;stroke:none"
       id="text290"
       x="56.600506"
       y="52.106892"><tspan
         x="56.600506 60.271408 63.936451"
         y="52.106892"
         sodipodi:role="line"
         id="tspan292">∆TE</tspan></text>
<text
       transform="scale(0.99984499,-1.000155)"
       style="font-variant:normal;font-weight:normal;font-size:6.99891472px;font-family:ArialMT;-inkscape-font-specification:ArialMT;writing-mode:lr-tb;fill:#231f20;fill-opacity:1;fill-rule:nonzero;stroke:none"
       id="text294"
       x="24.444983"
       y="-377.36011"><tspan
         y="-377.36011"
         x="24.444983"
         sodipodi:role="line"
         id="tspan296" /><tspan
         x="0.0047711357 3.8974648 6.2281027 10.120797 11.675727 15.56842 17.513063 21.01252 24.905212 28.797907 30.742546 33.073185 36.965878"
         sodipodi:role="line"
         id="tspan302"
         y="-152.5092">brain control</tspan><tspan
         x="1.0046161 4.8973098 8.7900028 12.682696 14.237627 16.18227 19.681726 23.574419 27.46711 29.411753 31.742392 35.635086"
         y="-66.86039"
         sodipodi:role="line"
         id="tspan304">dual control</tspan></text>
<path
       inkscape:connector-curvature="0"
       id="path310"
       style="fill:none;stroke:#231f20;stroke-width:0.5;stroke-linecap:butt;stroke-linejoin:miter;stroke-miterlimit:4;stroke-dasharray:none;stroke-opacity:1"
       d="m 149.95429,180.06661 -84.662875,0" /><path
       inkscape:connector-curvature="0"
       id="path314"
       style="fill:none;stroke:#444041;stroke-width:0.5;stroke-linecap:square;stroke-linejoin:round;stroke-miterlimit:10;stroke-dasharray:none;stroke-opacity:1"
       d="m 65.154093,180.06661 0.968,0 m -0.968,-14.932 0.968,0 m -0.968,-14.93 0.968,0 m -0.968,-14.933 0.968,0 m -0.968,-14.931 0.968,0 m -0.968,-7.466 0.968,0 m -0.968,0 0,67.192" /><g
       id="g316"
       transform="translate(0.0048926,0.11460721)"><text
         id="text318"
         style="font-variant:normal;font-weight:normal;font-size:4px;font-family:ArialMT;-inkscape-font-specification:ArialMT;writing-mode:lr-tb;fill:#231f20;fill-opacity:1;fill-rule:nonzero;stroke:none"
         transform="matrix(0.99969,0,0,-1,65.1465,183.836)"><tspan
           id="tspan320"
           sodipodi:role="line"
           y="0"
           x="0 2.434346 4.6591582">×10</tspan><tspan
           id="tspan322"
           sodipodi:role="line"
           y="-1.33008"
           x="6.1905899 7.5225902">-4</tspan></text>
</g><g
       id="g334"
       transform="translate(0.0048926,0.11460721)"><text
         id="text336"
         style="font-variant:normal;font-weight:normal;font-size:4px;font-family:ArialMT;-inkscape-font-specification:ArialMT;writing-mode:lr-tb;fill:#231f20;fill-opacity:1;fill-rule:nonzero;stroke:none"
         transform="matrix(0.99969,0,0,-1,57.15,118.964)"><tspan
           id="tspan338"
           sodipodi:role="line"
           y="0"
           x="0 1.332 3.5568058 4.6679878">-1.6</tspan><tspan
           id="tspan340"
           sodipodi:role="line"
           y="-14.8508"
           x="0 1.332 3.5568058 4.6679878">-1.2</tspan><tspan
           id="tspan342"
           sodipodi:role="line"
           y="-29.7031"
           x="0 1.332 3.5568058 4.6679878">-0.8</tspan><tspan
           id="tspan344"
           sodipodi:role="line"
           y="-44.555099"
           x="0 1.332 3.5568058 4.6679878">-0.4</tspan><tspan
           id="tspan346"
           y="-59.407101"
           x="3.73944">0</tspan></text>
</g><g
       id="g350"
       transform="translate(0.0048926,0.11460721)"><text
         id="text352"
         style="font-variant:normal;font-weight:normal;font-size:6px;font-family:ArialMT;-inkscape-font-specification:ArialMT;writing-mode:lr-tb;fill:#231f20;fill-opacity:1;fill-rule:nonzero;stroke:none"
         transform="matrix(0,1,1,0,54.0777,144.865)"><tspan
           id="tspan354"
           sodipodi:role="line"
           y="0"
           x="0 3.6709013 7.335937">∆TE</tspan></text>
<text
         id="text356"
         style="font-variant:normal;font-weight:normal;font-size:7px;font-family:ArialMT;-inkscape-font-specification:ArialMT;writing-mode:lr-tb;fill:#231f20;fill-opacity:1;fill-rule:nonzero;stroke:none"
         transform="matrix(0.99969,0,0,-1,3.49102,143.866)"><tspan
           id="tspan358"
           sodipodi:role="line"
           y="0"
           x="0 2.3310001 7 12.055278 14.000219 16.331221 18.276163 24.107164 29.162439">(BC - MC)</tspan></text>
</g><g
       id="g622"
       transform="translate(0.0048926,0.11460721)"><text
         id="text624"
         style="font-variant:normal;font-weight:normal;font-size:4px;font-family:ArialMT;-inkscape-font-specification:ArialMT;writing-mode:lr-tb;fill:#231f20;fill-opacity:1;fill-rule:nonzero;stroke:none"
         transform="matrix(0.99969,0,0,-1,64.8918,95.0859)"><tspan
           id="tspan626"
           sodipodi:role="line"
           y="0"
           x="0 2.434346 4.6591582">×10</tspan><tspan
           id="tspan628"
           sodipodi:role="line"
           y="-1.33008"
           x="6.1901999 7.5222001">-4</tspan></text>
</g></g></svg>